<?xml version="1.0" encoding="utf-8"?>
<!-- Generator: Adobe Illustrator 26.0.3, SVG Export Plug-In . SVG Version: 6.00 Build 0)  -->
<svg version="1.1" id="Layer_1" xmlns="http://www.w3.org/2000/svg" xmlns:xlink="http://www.w3.org/1999/xlink" x="0px" y="0px"
	 viewBox="0 0 550 600" style="enable-background:new 0 0 550 600;" xml:space="preserve">
<style type="text/css">
	.st0{fill:#C26DCC;}
	.st1{fill:#6ECC8E;}
	.st2{fill:#6E7CCC;}
	.st3{fill:#CCB36E;}
</style>
<g>
	<polygon class="st0" points="109.9,192.7 30.4,162.7 102.6,117.9 106.6,33 171.5,87.8 253.5,65.4 221.5,144.1 268.1,215.1 
		183.3,209 130.2,275.3 	"/>
	<path d="M107,33.8L171.1,88l0.3,0.3l0.4-0.1l81-22.1l-31.7,77.8l-0.2,0.4l0.2,0.4l46.1,70.2l-83.7-6.1l-0.4,0l-0.3,0.3l-52.5,65.5
		l-20.1-81.5l-0.1-0.4l-0.4-0.2l-78.5-29.7l71.3-44.3l0.4-0.2l0-0.4L107,33.8 M106.2,32.1l-4,85.5l-72.7,45.2l80.1,30.3l20.5,83.1
		l53.5-66.8l85.4,6.2l-47-71.6l32.3-79.3l-82.6,22.6L106.2,32.1L106.2,32.1z"/>
</g>
<g>
	<polygon class="st1" points="395.9,215 317.3,247.5 339.3,165.4 284.1,100.8 369,96.3 413.4,23.8 443.9,103.1 526.6,123 
		460.5,176.5 467.2,261.3 	"/>
	<path d="M413.3,24.7l30.1,78.4l0.2,0.4l0.4,0.1l81.6,19.6l-65.2,52.9l-0.3,0.3l0,0.4l6.6,83.7l-70.4-45.7l-0.4-0.2l-0.4,0.2
		l-77.6,32.1l21.7-81.1l0.1-0.4l-0.3-0.3l-54.5-63.9l83.8-4.4l0.4,0l0.2-0.4L413.3,24.7 M413.5,22.9l-44.7,73l-85.5,4.5l55.6,65.1
		l-22.1,82.7l79.1-32.7l71.8,46.6l-6.7-85.3l66.5-53.9l-83.2-20L413.5,22.9L413.5,22.9z"/>
</g>
<g>
	<polygon class="st2" points="368.3,491.2 284,480.1 344.1,419.9 328.5,336.4 404.3,374.9 479,334.3 465.8,418.2 527.5,476.7 
		443.6,490.1 407,566.8 	"/>
	<path d="M478.5,335l-13,82.9l-0.1,0.4l0.3,0.3l60.9,57.8l-82.9,13.2l-0.4,0.1l-0.2,0.4L407,565.9l-38.2-74.8l-0.2-0.4l-0.4-0.1
		l-83.2-10.9l59.3-59.4l0.3-0.3l-0.1-0.4l-15.4-82.5l74.9,38l0.4,0.2l0.4-0.2L478.5,335 M479.5,333.5l-75.2,40.9L328,335.6
		l15.7,84.2l-60.5,60.6l84.9,11.1l39,76.2l36.8-77.3l84.5-13.5l-62.1-58.9L479.5,333.5L479.5,333.5z"/>
</g>
<g>
	<polygon class="st3" points="133.5,500.2 56.2,535.4 75.2,452.6 17.8,389.9 102.5,382.5 144.4,308.5 177.6,386.7 260.9,403.7 
		196.8,459.5 206.4,543.9 	"/>
	<path d="M144.3,309.4l32.8,77.3l0.2,0.4l0.4,0.1l82.3,16.8L196.7,459l-0.3,0.3l0,0.4l9.5,83.4l-72-43.2l-0.4-0.2l-0.4,0.2
		l-76.4,34.8l18.9-81.8l0.1-0.4l-0.3-0.3l-56.7-61.9l83.6-7.3l0.4,0l0.2-0.4L144.3,309.4 M144.5,307.6l-42.2,74.5L17,389.6
		l57.8,63.1l-19.2,83.4l77.9-35.5l73.4,44.1l-9.7-85.1l64.6-56.2l-83.9-17.1L144.5,307.6L144.5,307.6z"/>
</g>
</svg>
