<?xml version="1.0" encoding="utf-8"?>
<!-- Generator: Adobe Illustrator 26.0.3, SVG Export Plug-In . SVG Version: 6.00 Build 0)  -->
<svg version="1.1" id="Layer_1" xmlns="http://www.w3.org/2000/svg" xmlns:xlink="http://www.w3.org/1999/xlink" x="0px" y="0px"
	 viewBox="0 0 1080 768" style="enable-background:new 0 0 1080 768;" xml:space="preserve">
<style type="text/css">
	.st0{fill:#EAAA1B;}
</style>
<g>
	<polygon class="st0" points="80.1,100.7 51.5,108.4 62.8,81 46.7,56.2 76.2,58.5 94.9,35.5 101.8,64.3 129.4,75 104.1,90.4 
		102.6,120 	"/>
	<path d="M94.6,36.6l6.6,27.5l0.1,0.5l0.5,0.2l26.4,10.2l-24.2,14.8l-0.4,0.3l0,0.5l-1.5,28.3l-21.5-18.4l-0.4-0.3l-0.5,0.1
		l-27.4,7.3l10.9-26.2l0.2-0.5l-0.3-0.4L47.7,56.8L75.9,59l0.5,0l0.3-0.4L94.6,36.6 M95.1,34.4L76,58l-30.2-2.4l16.5,25.5l-11.6,28
		l29.3-7.8L103,121l1.6-30.3l25.9-15.8L102.2,64L95.1,34.4L95.1,34.4z"/>
</g>
<g>
	<polygon class="st0" points="226,167.5 213.6,174 216,160.2 206,150.4 219.8,148.5 226.1,135.9 232.2,148.5 246.1,150.5 236,160.3 
		238.3,174.1 	"/>
	<g>
		<path d="M226.1,137.1l5.6,11.4l0.2,0.5l0.5,0.1l12.6,1.9l-9.1,8.9l-0.4,0.4l0.1,0.5l2.1,12.5l-11.2-6L226,167l-0.5,0.2l-11.3,5.9
			l2.2-12.5l0.1-0.5l-0.4-0.4l-9.1-8.9l12.6-1.8l0.5-0.1l0.2-0.5L226.1,137.1 M226.1,134.8l-6.6,13.2l-14.6,2.1l10.5,10.3l-2.5,14.5
			l13.1-6.8l13,6.9l-2.5-14.5l10.6-10.3l-14.6-2.2L226.1,134.8L226.1,134.8z"/>
	</g>
</g>
<g>
	<polygon class="st0" points="891,342.5 878.6,349 881,335.2 871,325.4 884.8,323.5 891.1,310.9 897.2,323.5 911.1,325.5 901,335.3 
		903.3,349.1 	"/>
	<g>
		<path d="M891.1,312.1l5.6,11.4l0.2,0.5l0.5,0.1l12.6,1.9l-9.1,8.9l-0.4,0.4l0.1,0.5l2.1,12.5l-11.2-6L891,342l-0.5,0.2l-11.3,5.9
			l2.2-12.5l0.1-0.5l-0.4-0.4l-9.1-8.9l12.6-1.8l0.5-0.1l0.2-0.5L891.1,312.1 M891.1,309.8l-6.6,13.2l-14.6,2.1l10.5,10.3l-2.5,14.5
			l13.1-6.8l13,6.9l-2.5-14.5l10.6-10.3l-14.6-2.2L891.1,309.8L891.1,309.8z"/>
	</g>
</g>
<g>
	<polygon class="st0" points="441,92.5 428.6,99 431,85.2 421,75.4 434.8,73.5 441.1,60.9 447.2,73.5 461.1,75.5 451,85.3 
		453.3,99.1 	"/>
	<g>
		<path d="M441.1,62.1l5.6,11.4l0.2,0.5l0.5,0.1l12.6,1.9l-9.1,8.9l-0.4,0.4l0.1,0.5l2.1,12.5l-11.2-6L441,92l-0.5,0.2l-11.3,5.9
			l2.2-12.5l0.1-0.5l-0.4-0.4l-9.1-8.9l12.6-1.8l0.5-0.1l0.2-0.5L441.1,62.1 M441.1,59.8L434.5,73l-14.6,2.1l10.5,10.3l-2.5,14.5
			l13.1-6.8l13,6.9l-2.5-14.5l10.6-10.3L447.6,73L441.1,59.8L441.1,59.8z"/>
	</g>
</g>
<g>
	<polygon class="st0" points="336,507.5 323.6,514 326,500.2 316,490.4 329.8,488.5 336.1,475.9 342.2,488.5 356.1,490.5 346,500.3 
		348.3,514.1 	"/>
	<g>
		<path d="M336.1,477.1l5.6,11.4l0.2,0.5l0.5,0.1l12.6,1.9l-9.1,8.9l-0.4,0.4l0.1,0.5l2.1,12.5l-11.2-6L336,507l-0.5,0.2l-11.3,5.9
			l2.2-12.5l0.1-0.5l-0.4-0.4l-9.1-8.9l12.6-1.8l0.5-0.1l0.2-0.5L336.1,477.1 M336.1,474.8l-6.6,13.2l-14.6,2.1l10.5,10.3l-2.5,14.5
			l13.1-6.8l13,6.9l-2.5-14.5l10.6-10.3l-14.6-2.2L336.1,474.8L336.1,474.8z"/>
	</g>
</g>
<g>
	<polygon class="st0" points="236,637.5 223.6,644 226,630.2 216,620.4 229.8,618.5 236.1,605.9 242.2,618.5 256.1,620.5 246,630.3 
		248.3,644.1 	"/>
	<g>
		<path d="M236.1,607.1l5.6,11.4l0.2,0.5l0.5,0.1l12.6,1.9l-9.1,8.9l-0.4,0.4l0.1,0.5l2.1,12.5l-11.2-6L236,637l-0.5,0.2l-11.3,5.9
			l2.2-12.5l0.1-0.5l-0.4-0.4l-9.1-8.9l12.6-1.8l0.5-0.1l0.2-0.5L236.1,607.1 M236.1,604.8l-6.6,13.2l-14.6,2.1l10.5,10.3l-2.5,14.5
			l13.1-6.8l13,6.9l-2.5-14.5l10.6-10.3l-14.6-2.2L236.1,604.8L236.1,604.8z"/>
	</g>
</g>
<g>
	<polygon class="st0" points="301,37.5 288.6,44 291,30.2 281,20.4 294.8,18.5 301.1,5.9 307.2,18.5 321.1,20.5 311,30.3 
		313.3,44.1 	"/>
	<g>
		<path d="M301.1,7.1l5.6,11.4l0.2,0.5l0.5,0.1l12.6,1.9l-9.1,8.9l-0.4,0.4l0.1,0.5l2.1,12.5l-11.2-6L301,37l-0.5,0.2l-11.3,5.9
			l2.2-12.5l0.1-0.5l-0.4-0.4l-9.1-8.9l12.6-1.8l0.5-0.1l0.2-0.5L301.1,7.1 M301.1,4.8L294.5,18l-14.6,2.1l10.5,10.3l-2.5,14.5
			l13.1-6.8l13,6.9l-2.5-14.5l10.6-10.3L307.6,18L301.1,4.8L301.1,4.8z"/>
	</g>
</g>
<g>
	<polygon class="st0" points="586,207.5 573.6,214 576,200.2 566,190.4 579.8,188.5 586.1,175.9 592.2,188.5 606.1,190.5 596,200.3 
		598.3,214.1 	"/>
	<g>
		<path d="M586.1,177.1l5.6,11.4l0.2,0.5l0.5,0.1l12.6,1.9l-9.1,8.9l-0.4,0.4l0.1,0.5l2.1,12.5l-11.2-6L586,207l-0.5,0.2l-11.3,5.9
			l2.2-12.5l0.1-0.5l-0.4-0.4l-9.1-8.9l12.6-1.8l0.5-0.1l0.2-0.5L586.1,177.1 M586.1,174.8l-6.6,13.2l-14.6,2.1l10.5,10.3l-2.5,14.5
			l13.1-6.8l13,6.9l-2.5-14.5l10.6-10.3l-14.6-2.2L586.1,174.8L586.1,174.8z"/>
	</g>
</g>
<g>
	<polygon class="st0" points="546,327.5 533.6,334 536,320.2 526,310.4 539.8,308.5 546.1,295.9 552.2,308.5 566.1,310.5 556,320.3 
		558.3,334.1 	"/>
	<g>
		<path d="M546.1,297.1l5.6,11.4l0.2,0.5l0.5,0.1l12.6,1.9l-9.1,8.9l-0.4,0.4l0.1,0.5l2.1,12.5l-11.2-6L546,327l-0.5,0.2l-11.3,5.9
			l2.2-12.5l0.1-0.5l-0.4-0.4l-9.1-8.9l12.6-1.8l0.5-0.1l0.2-0.5L546.1,297.1 M546.1,294.8l-6.6,13.2l-14.6,2.1l10.5,10.3l-2.5,14.5
			l13.1-6.8l13,6.9l-2.5-14.5l10.6-10.3l-14.6-2.2L546.1,294.8L546.1,294.8z"/>
	</g>
</g>
<g>
	<polygon class="st0" points="996,272.5 983.6,279 986,265.2 976,255.4 989.8,253.5 996.1,240.9 1002.2,253.5 1016.1,255.5 
		1006,265.3 1008.3,279.1 	"/>
	<g>
		<path d="M996.1,242.1l5.6,11.4l0.2,0.5l0.5,0.1l12.6,1.9l-9.1,8.9l-0.4,0.4l0.1,0.5l2.1,12.5l-11.2-6L996,272l-0.5,0.2l-11.3,5.9
			l2.2-12.5l0.1-0.5l-0.4-0.4l-9.1-8.9l12.6-1.8l0.5-0.1l0.2-0.5L996.1,242.1 M996.1,239.8l-6.6,13.2l-14.6,2.1l10.5,10.3l-2.5,14.5
			l13.1-6.8l13,6.9l-2.5-14.5l10.6-10.3l-14.6-2.2L996.1,239.8L996.1,239.8z"/>
	</g>
</g>
<g>
	<polygon class="st0" points="996,682.5 983.6,689 986,675.2 976,665.4 989.8,663.5 996.1,650.9 1002.2,663.5 1016.1,665.5 
		1006,675.3 1008.3,689.1 	"/>
	<g>
		<path d="M996.1,652.1l5.6,11.4l0.2,0.5l0.5,0.1l12.6,1.9l-9.1,8.9l-0.4,0.4l0.1,0.5l2.1,12.5l-11.2-6L996,682l-0.5,0.2l-11.3,5.9
			l2.2-12.5l0.1-0.5l-0.4-0.4l-9.1-8.9l12.6-1.8l0.5-0.1l0.2-0.5L996.1,652.1 M996.1,649.8l-6.6,13.2l-14.6,2.1l10.5,10.3l-2.5,14.5
			l13.1-6.8l13,6.9l-2.5-14.5l10.6-10.3l-14.6-2.2L996.1,649.8L996.1,649.8z"/>
	</g>
</g>
<g>
	<polygon class="st0" points="721,682.5 708.6,689 711,675.2 701,665.4 714.8,663.5 721.1,650.9 727.2,663.5 741.1,665.5 731,675.3 
		733.3,689.1 	"/>
	<g>
		<path d="M721.1,652.1l5.6,11.4l0.2,0.5l0.5,0.1l12.6,1.9l-9.1,8.9l-0.4,0.4l0.1,0.5l2.1,12.5l-11.2-6L721,682l-0.5,0.2l-11.3,5.9
			l2.2-12.5l0.1-0.5l-0.4-0.4l-9.1-8.9l12.6-1.8l0.5-0.1l0.2-0.5L721.1,652.1 M721.1,649.8l-6.6,13.2l-14.6,2.1l10.5,10.3l-2.5,14.5
			l13.1-6.8l13,6.9l-2.5-14.5l10.6-10.3l-14.6-2.2L721.1,649.8L721.1,649.8z"/>
	</g>
</g>
<g>
	<polygon class="st0" points="138.4,268.6 123.7,255.2 143.3,251.7 151.5,233.6 160.8,251.1 180.6,253.3 166.8,267.6 170.8,287.1 
		152.9,278.4 135.7,288.2 	"/>
	<g>
		<path d="M151.5,234.7l8.8,16.4l0.2,0.5l0.5,0.1l18.5,2.1l-12.9,13.4l-0.4,0.4l0.1,0.5l3.7,18.2l-16.7-8.1l-0.5-0.2l-0.5,0.3
			l-16.2,9.2l2.5-18.4l0.1-0.5l-0.4-0.4l-13.7-12.5l18.3-3.3l0.5-0.1l0.2-0.5L151.5,234.7 M151.4,232.5l-8.5,18.8l-20.3,3.6
			l15.2,13.9l-2.8,20.4l17.9-10.2l18.5,9l-4.1-20.2l14.3-14.9l-20.5-2.3L151.4,232.5L151.4,232.5z"/>
	</g>
</g>
<g>
	<polygon class="st0" points="138.4,523.6 123.7,510.2 143.3,506.7 151.5,488.6 160.8,506.1 180.6,508.3 166.8,522.6 170.8,542.1 
		152.9,533.4 135.7,543.2 	"/>
	<g>
		<path d="M151.5,489.7l8.8,16.4l0.2,0.5l0.5,0.1l18.5,2.1l-12.9,13.4l-0.4,0.4l0.1,0.5l3.7,18.2l-16.7-8.1l-0.5-0.2l-0.5,0.3
			l-16.2,9.2l2.5-18.4l0.1-0.5l-0.4-0.4l-13.7-12.5l18.3-3.3l0.5-0.1l0.2-0.5L151.5,489.7 M151.4,487.5l-8.5,18.8l-20.3,3.6
			l15.2,13.9l-2.8,20.4l17.9-10.2l18.5,9l-4.1-20.2l14.3-14.9l-20.5-2.3L151.4,487.5L151.4,487.5z"/>
	</g>
</g>
<g>
	<polygon class="st0" points="453.4,568.6 438.7,555.2 458.3,551.7 466.5,533.6 475.8,551.1 495.6,553.3 481.8,567.6 485.8,587.1 
		467.9,578.4 450.7,588.2 	"/>
	<g>
		<path d="M466.5,534.7l8.8,16.4l0.2,0.5l0.5,0.1l18.5,2.1l-12.9,13.4l-0.4,0.4l0.1,0.5l3.7,18.2l-16.7-8.1l-0.5-0.2l-0.5,0.3
			l-16.2,9.2l2.5-18.4l0.1-0.5l-0.4-0.4l-13.7-12.5l18.3-3.3l0.5-0.1l0.2-0.5L466.5,534.7 M466.4,532.5l-8.5,18.8l-20.3,3.6
			l15.2,13.9l-2.8,20.4l17.9-10.2l18.5,9l-4.1-20.2l14.3-14.9l-20.5-2.3L466.4,532.5L466.4,532.5z"/>
	</g>
</g>
<g>
	<polygon class="st0" points="283.4,398.6 268.7,385.2 288.3,381.7 296.5,363.6 305.8,381.1 325.6,383.3 311.8,397.6 315.8,417.1 
		297.9,408.4 280.7,418.2 	"/>
	<g>
		<path d="M296.5,364.7l8.8,16.4l0.2,0.5l0.5,0.1l18.5,2.1l-12.9,13.4l-0.4,0.4l0.1,0.5l3.7,18.2l-16.7-8.1l-0.5-0.2l-0.5,0.3
			l-16.2,9.2l2.5-18.4l0.1-0.5l-0.4-0.4l-13.7-12.5l18.3-3.3l0.5-0.1l0.2-0.5L296.5,364.7 M296.4,362.5l-8.5,18.8l-20.3,3.6
			l15.2,13.9l-2.8,20.4l17.9-10.2l18.5,9l-4.1-20.2l14.3-14.9l-20.5-2.3L296.4,362.5L296.4,362.5z"/>
	</g>
</g>
<g>
	<polygon class="st0" points="568.4,698.6 553.7,685.2 573.3,681.7 581.5,663.6 590.8,681.1 610.6,683.3 596.8,697.6 600.8,717.1 
		582.9,708.4 565.7,718.2 	"/>
	<g>
		<path d="M581.5,664.7l8.8,16.4l0.2,0.5l0.5,0.1l18.5,2.1l-12.9,13.4l-0.4,0.4l0.1,0.5l3.7,18.2l-16.7-8.1l-0.5-0.2l-0.5,0.3
			l-16.2,9.2l2.5-18.4l0.1-0.5l-0.4-0.4l-13.7-12.5l18.3-3.3l0.5-0.1l0.2-0.5L581.5,664.7 M581.4,662.5l-8.5,18.8l-20.3,3.6
			l15.2,13.9l-2.8,20.4l17.9-10.2l18.5,9l-4.1-20.2l14.3-14.9l-20.5-2.3L581.4,662.5L581.4,662.5z"/>
	</g>
</g>
<g>
	<polygon class="st0" points="958.4,103.6 943.7,90.2 963.3,86.7 971.5,68.6 980.8,86.1 1000.6,88.3 986.8,102.6 990.8,122.1 
		972.9,113.4 955.7,123.2 	"/>
	<g>
		<path d="M971.5,69.7l8.8,16.4l0.2,0.5l0.5,0.1l18.5,2.1l-12.9,13.4l-0.4,0.4l0.1,0.5l3.7,18.2l-16.7-8.1l-0.5-0.2l-0.5,0.3
			l-16.2,9.2l2.5-18.4l0.1-0.5l-0.4-0.4l-13.7-12.5l18.3-3.3l0.5-0.1l0.2-0.5L971.5,69.7 M971.4,67.5l-8.5,18.8l-20.3,3.6l15.2,13.9
			l-2.8,20.4l17.9-10.2l18.5,9l-4.1-20.2l14.3-14.9l-20.5-2.3L971.4,67.5L971.4,67.5z"/>
	</g>
</g>
<g>
	<polygon class="st0" points="648.4,68.6 633.7,55.2 653.3,51.7 661.5,33.6 670.8,51.1 690.6,53.3 676.8,67.6 680.8,87.1 
		662.9,78.4 645.7,88.2 	"/>
	<g>
		<path d="M661.5,34.7l8.8,16.4l0.2,0.5l0.5,0.1l18.5,2.1l-12.9,13.4l-0.4,0.4l0.1,0.5l3.7,18.2l-16.7-8.1l-0.5-0.2l-0.5,0.3
			l-16.2,9.2l2.5-18.4l0.1-0.5l-0.4-0.4l-13.7-12.5l18.3-3.3l0.5-0.1l0.2-0.5L661.5,34.7 M661.4,32.5l-8.5,18.8l-20.3,3.6l15.2,13.9
			L645,89.2L662.9,79l18.5,9l-4.1-20.2l14.3-14.9l-20.5-2.3L661.4,32.5L661.4,32.5z"/>
	</g>
</g>
<g>
	<polygon class="st0" points="743.4,433.6 728.7,420.2 748.3,416.7 756.5,398.6 765.8,416.1 785.6,418.3 771.8,432.6 775.8,452.1 
		757.9,443.4 740.7,453.2 	"/>
	<g>
		<path d="M756.5,399.7l8.8,16.4l0.2,0.5l0.5,0.1l18.5,2.1l-12.9,13.4l-0.4,0.4l0.1,0.5l3.7,18.2l-16.7-8.1l-0.5-0.2l-0.5,0.3
			l-16.2,9.2l2.5-18.4l0.1-0.5l-0.4-0.4l-13.7-12.5l18.3-3.3l0.5-0.1l0.2-0.5L756.5,399.7 M756.4,397.5l-8.5,18.8l-20.3,3.6
			l15.2,13.9l-2.8,20.4l17.9-10.2l18.5,9l-4.1-20.2l14.3-14.9l-20.5-2.3L756.4,397.5L756.4,397.5z"/>
	</g>
</g>
<g>
	<polygon class="st0" points="377.9,239.6 333.3,219.4 376.5,196.3 381.9,147.6 417.2,181.6 465.2,171.7 443.9,215.8 468.1,258.4 
		419.5,251.7 386.5,287.9 	"/>
	<g>
		<path d="M382.3,148.7l34.4,33l0.4,0.4l0.5-0.1l46.7-9.6l-20.8,42.9l-0.2,0.5l0.3,0.5l23.6,41.5l-47.3-6.5l-0.5-0.1l-0.4,0.4
			l-32.2,35.2l-8.4-47l-0.1-0.5l-0.5-0.2l-43.4-19.7l42.1-22.5l0.5-0.2l0.1-0.5L382.3,148.7 M381.5,146.6L376,196l-43.8,23.5
			l45.3,20.5l8.8,49l33.5-36.7L469,259l-24.6-43.2l21.7-44.8l-48.7,10L381.5,146.6L381.5,146.6z"/>
	</g>
</g>
<g>
	<polygon class="st0" points="102.2,424.2 57.7,444.7 68.5,396.9 35.4,360.9 84.1,356.5 108.2,313.8 127.4,358.8 175.5,368.4 
		138.6,400.7 144.2,449.3 	"/>
	<g>
		<path d="M108.1,314.9l18.8,43.9l0.2,0.5l0.5,0.1l46.8,9.4l-35.9,31.4l-0.4,0.3l0.1,0.5l5.5,47.4l-41-24.4l-0.5-0.3l-0.5,0.2
			l-43.4,19.9L69,397.3l0.1-0.5l-0.4-0.4l-32.3-35.1l47.5-4.3l0.5,0l0.3-0.5L108.1,314.9 M108.2,312.6L83.8,356l-49.5,4.5L68,397
			l-11,48.5l45.2-20.7l42.7,25.5l-5.7-49.4l37.4-32.7l-48.8-9.8L108.2,312.6L108.2,312.6z"/>
	</g>
</g>
<g>
	<polygon class="st0" points="366.3,697.5 317.3,697.4 347.2,658.6 332.2,611.9 378.3,628.4 418,599.7 416.7,648.7 456.2,677.6 
		409.2,691.4 393.9,737.9 	"/>
	<g>
		<path d="M417.5,600.7l-1.4,47.7l0,0.5l0.4,0.3l38.5,28.1l-45.8,13.4l-0.5,0.1l-0.2,0.5l-14.9,45.3l-26.9-39.4l-0.3-0.4l-0.5,0
			l-47.7-0.1l29.1-37.8l0.3-0.4l-0.2-0.5L333,612.8l44.9,16l0.5,0.2l0.4-0.3L417.5,600.7 M418.6,598.7l-40.3,29.1l-46.8-16.7
			l15.2,47.3l-30.4,39.4L366,698l28.1,41l15.5-47.3l47.7-14l-40.2-29.3L418.6,598.7L418.6,598.7z"/>
	</g>
</g>
<g>
	<polygon class="st0" points="987.9,474.6 943.3,454.4 986.5,431.3 991.9,382.6 1027.2,416.6 1075.2,406.7 1053.9,450.8 
		1078.1,493.4 1029.5,486.7 996.5,522.9 	"/>
	<g>
		<path d="M992.3,383.7l34.4,33l0.4,0.4l0.5-0.1l46.7-9.6l-20.8,42.9l-0.2,0.5l0.3,0.5l23.6,41.5l-47.3-6.5l-0.5-0.1l-0.4,0.4
			l-32.2,35.2l-8.4-47l-0.1-0.5l-0.5-0.2l-43.4-19.7l42.1-22.5l0.5-0.2l0.1-0.5L992.3,383.7 M991.5,381.6L986,431l-43.8,23.5
			l45.3,20.5l8.8,49l33.5-36.7l49.3,6.8l-24.6-43.2l21.7-44.8l-48.7,10L991.5,381.6L991.5,381.6z"/>
	</g>
</g>
<g>
	<polygon class="st0" points="561.3,485.3 512.4,488 540,447.6 522.3,401.9 569.3,415.6 607.3,384.7 608.7,433.7 649.9,460.2 
		603.8,476.7 591.2,524.1 	"/>
	<g>
		<path d="M606.8,385.7l1.4,47.7l0,0.5l0.4,0.3l40.1,25.9l-44.9,16.1l-0.5,0.2l-0.1,0.5L591,523l-29.2-37.7l-0.3-0.4l-0.5,0
			l-47.6,2.6l26.9-39.4l0.3-0.4l-0.2-0.5l-17.2-44.5l45.8,13.4l0.5,0.1l0.4-0.3L606.8,385.7 M607.7,383.7l-38.6,31.4l-47.7-14
			l18,46.4l-28,41.1l49.7-2.7l30.4,39.3l12.7-48.1l46.8-16.8l-41.8-27L607.7,383.7L607.7,383.7z"/>
	</g>
</g>
<g>
	<polygon class="st0" points="54.9,699.6 10.3,679.4 53.5,656.3 58.9,607.6 94.2,641.6 142.2,631.7 120.9,675.8 145.1,718.4 
		96.5,711.7 63.5,747.9 	"/>
	<g>
		<path d="M59.3,608.7l34.4,33l0.4,0.4l0.5-0.1l46.7-9.6l-20.8,42.9l-0.2,0.5l0.3,0.5l23.6,41.5l-47.3-6.5l-0.5-0.1l-0.4,0.4
			l-32.2,35.2l-8.4-47l-0.1-0.5l-0.5-0.2l-43.4-19.7l42.1-22.5l0.5-0.2l0.1-0.5L59.3,608.7 M58.5,606.6L53,656L9.2,679.5L54.4,700
			l8.8,49l33.5-36.7L146,719l-24.6-43.2l21.7-44.8l-48.7,10L58.5,606.6L58.5,606.6z"/>
	</g>
</g>
<g>
	<polygon class="st0" points="731.3,299.2 686.3,318.6 698.2,271.1 665.8,234.4 714.7,231 739.6,188.9 757.9,234.3 805.7,245 
		768.1,276.4 772.8,325.2 	"/>
	<g>
		<path d="M739.5,190l17.8,44.2l0.2,0.5l0.5,0.1l46.6,10.4L768,275.9l-0.4,0.3l0,0.5l4.5,47.5l-40.4-25.3l-0.4-0.3l-0.5,0.2
			l-43.8,19l11.6-46.3l0.1-0.5l-0.3-0.4l-31.6-35.8l47.6-3.3l0.5,0l0.3-0.5L739.5,190 M739.7,187.7l-25.3,42.8l-49.6,3.4l32.9,37.3
			l-12.1,48.2l45.6-19.8l42.2,26.4l-4.7-49.5l38.1-31.9l-48.5-10.8L739.7,187.7L739.7,187.7z"/>
	</g>
</g>
<g>
	<polygon class="st0" points="806.4,105.4 757.5,108.3 785,67.7 767.1,22.1 814.2,35.7 852,4.6 853.7,53.5 894.9,79.9 848.9,96.6 
		836.5,144 	"/>
	<g>
		<path d="M851.6,5.6l1.6,47.7l0,0.5l0.4,0.3l40.2,25.7L849,96.1l-0.5,0.2l-0.1,0.5l-12,46.2L807,105.3l-0.3-0.4l-0.5,0l-47.6,2.8
			l26.7-39.5l0.3-0.4l-0.2-0.5l-17.4-44.4l45.8,13.2l0.5,0.1l0.4-0.3L851.6,5.6 M852.5,3.6l-38.4,31.6l-47.8-13.8l18.1,46.3
			l-27.9,41.2l49.6-2.9l30.6,39.2L849.3,97l46.8-17l-41.9-26.8L852.5,3.6L852.5,3.6z"/>
	</g>
</g>
<g>
	<polygon class="st0" points="799.5,593.9 764.4,559.7 812.9,552.6 834.5,508.7 856.2,552.6 904.7,559.6 869.7,593.8 878,642.1 
		834.6,619.3 791.3,642.1 	"/>
	<g>
		<path d="M834.5,509.8l21.2,42.8l0.2,0.5l0.5,0.1l47.2,6.8l-34.1,33.3l-0.4,0.4l0.1,0.5l8.1,47L835.1,619l-0.5-0.2l-0.5,0.2
			l-42.2,22.2l8-47l0.1-0.5l-0.4-0.4l-34.2-33.3l47.2-6.9l0.5-0.1l0.2-0.5L834.5,509.8 M834.5,507.5l-22,44.6l-49.2,7.2L799,594
			l-8.4,49l44-23.2l44,23.1l-8.5-49l35.6-34.7l-49.2-7.1L834.5,507.5L834.5,507.5z"/>
	</g>
</g>
</svg>
