<?xml version="1.0" encoding="utf-8"?>
<!-- Generator: Adobe Illustrator 25.4.1, SVG Export Plug-In . SVG Version: 6.00 Build 0)  -->
<svg version="1.1" id="BASE" xmlns="http://www.w3.org/2000/svg" xmlns:xlink="http://www.w3.org/1999/xlink" x="0px" y="0px"
	 viewBox="0 0 800 800" style="enable-background:new 0 0 800 800;" xml:space="preserve">
<style type="text/css">
	.st0{fill:#EEB3C6;}
	.st1{fill:#F0A5BB;}
	.st2{fill:#FFFFFF;}
	.st3{fill:#F5D2C9;}
	.st4{fill:#F5D2C9;stroke:#F6CE71;stroke-width:14;stroke-miterlimit:10;}
	.st5{fill:#EFA494;}
	.st6{fill:#FFFFFF;stroke:#FFFFFF;stroke-miterlimit:10;}
	.st7{stroke:#000000;stroke-miterlimit:10;}
	.st8{fill:none;stroke:#000000;stroke-miterlimit:10;}
	.st9{fill:#EEB3C6;stroke:#F0A5BB;stroke-width:5;stroke-miterlimit:10;}
	.st10{fill:#FAEFC0;stroke:#F6D973;stroke-width:3;stroke-miterlimit:10;}
</style>
<g>
	<path class="st0" d="M205.41,322.44l4.98-138.56c0,0,79.75,1.99,93.7,44.86S205.41,322.44,205.41,322.44z"/>
	<path class="st1" d="M205.3,322.6l0.4-33.92l0.28-17.29c0.1-5.78,0.22-11.6,0.37-17.44c0.24-11.64,0.65-23.4,1.29-35.13l2-34.97
		l0.04-0.78l0.73,0.04c10.64,0.65,21.16,2.01,31.58,4.07c10.4,2.09,20.75,4.8,30.6,9.05c4.9,2.14,9.7,4.63,14.14,7.74
		c4.44,3.09,8.56,6.74,11.98,11.05c3.43,4.32,6.02,9.25,7.63,14.64c0.74,2.76,1.02,5.64,0.85,8.48c-0.17,2.84-0.76,5.62-1.64,8.28
		c-1.75,5.33-4.62,10.1-7.86,14.46c-3.27,4.35-6.92,8.35-10.83,12.05c-7.81,7.4-16.36,13.85-25.22,19.77
		c-8.86,5.91-18.05,11.29-27.43,16.25c-4.7,2.48-9.4,4.92-14.21,7.17c-2.4,1.14-4.8,2.25-7.22,3.34c-1.21,0.54-2.42,1.09-3.64,1.61
		l-1.83,0.78l-0.92,0.38l-0.46,0.19C205.86,322.48,205.51,322.61,205.3,322.6z M205.53,322.27c0.1-0.15,0.05-0.15,0.25-0.24
		l0.44-0.23l0.88-0.46l1.76-0.92l3.51-1.86c2.33-1.24,4.65-2.51,6.96-3.8c4.61-2.59,9.21-5.17,13.75-7.88
		c9.06-5.42,17.96-11.09,26.54-17.17c4.29-3.03,8.5-6.19,12.57-9.49c4.09-3.27,8.03-6.72,11.77-10.34
		c3.7-3.66,7.26-7.45,10.34-11.56c3.04-4.12,5.76-8.51,7.4-13.23c1.66-4.69,2.17-9.74,0.96-14.47c-0.26-1.18-0.75-2.36-1.19-3.54
		c-0.23-0.59-0.41-1.19-0.69-1.76l-0.84-1.7c-0.29-0.56-0.55-1.14-0.85-1.69l-1.01-1.61l-1.01-1.61l-1.15-1.52
		c-3.05-4.07-6.82-7.63-10.97-10.71c-4.16-3.07-8.65-5.75-13.36-8.03c-4.7-2.3-9.61-4.19-14.6-5.84
		c-4.99-1.66-10.09-3.02-15.24-4.14c-10.3-2.19-20.84-3.59-31.35-3.85l0.78-0.73l-0.49,34.3c-0.19,11.37-0.62,22.7-1.21,34.15
		c-0.26,5.71-0.56,11.44-0.88,17.2l-0.96,17.35L205.53,322.27z"/>
</g>
<g>
	<path class="st0" d="M577.16,299.97l-15.14-126.04c0,0-68.56,7.71-77.23,47.85S577.16,299.97,577.16,299.97z"/>
	<path class="st1" d="M577.04,299.81l-4.7-32.17l-2.24-15.75c-0.75-5.23-1.44-10.43-2.13-15.61c-1.42-10.39-2.67-20.68-3.64-31.01
		c-1.04-10.34-1.92-20.77-3.01-31.25l0.79,0.62c-9.21,1.07-18.37,3.17-27.21,6.06c-4.43,1.43-8.76,3.15-12.97,5.08
		c-4.22,1.93-8.31,4.12-12.17,6.62c-3.86,2.5-7.52,5.3-10.78,8.47c-3.26,3.17-6.1,6.73-8.26,10.65c-1.08,1.95-2.03,3.98-2.74,6.09
		c-0.43,1.03-0.66,2.12-0.94,3.19c-0.13,0.54-0.3,1.08-0.4,1.61l-0.25,1.59c-0.52,4.27,0.36,8.62,2.12,12.64
		c1.76,4.03,4.34,7.75,7.22,11.23c2.92,3.46,6.22,6.64,9.65,9.68c3.46,3.02,7.09,5.86,10.85,8.55c3.74,2.72,7.59,5.29,11.53,7.75
		c7.85,4.94,15.98,9.5,24.24,13.82c4.13,2.16,8.33,4.19,12.52,6.25c2.1,1.02,4.21,2.02,6.33,2.99l3.19,1.46l1.6,0.72l0.8,0.36
		l0.4,0.18C577.02,299.68,576.95,299.68,577.04,299.81z M577.29,300.13c-0.19,0.03-0.53-0.07-0.61-0.11l-0.42-0.14l-0.83-0.28
		l-1.66-0.58c-1.11-0.38-2.2-0.8-3.3-1.2c-2.19-0.82-4.38-1.66-6.56-2.53c-4.37-1.71-8.66-3.6-12.94-5.52
		c-8.56-3.85-16.95-8.1-25.08-12.86c-4.06-2.39-8.06-4.9-11.96-7.57c-3.89-2.69-7.67-5.55-11.3-8.63c-1.81-1.55-3.58-3.14-5.28-4.83
		c-1.69-1.7-3.33-3.45-4.88-5.3c-3.08-3.7-5.87-7.76-7.75-12.36c-1.9-4.55-2.87-9.7-2.16-14.74l0.33-1.87
		c0.12-0.62,0.32-1.19,0.47-1.79c0.34-1.18,0.62-2.38,1.1-3.5c0.82-2.31,1.91-4.51,3.13-6.62c5.02-8.43,12.63-14.81,20.83-19.5
		c8.23-4.74,17.08-8.14,26.06-10.84c4.5-1.34,9.04-2.55,13.62-3.56c4.58-1.05,9.18-1.9,13.85-2.59l0.69-0.1l0.1,0.73
		c1.43,10.53,3.07,21.1,4.56,31.77c1.55,10.67,2.82,21.39,3.93,32.01c0.57,5.32,1.14,10.63,1.65,15.9l1.55,15.76L577.29,300.13z"/>
</g>
<g>
	<polygon class="st0" points="314.21,472.66 221.68,655.4 580.42,657.19 493.84,464.11 	"/>
	<path class="st1" d="M314.32,472.83l-22.61,46.26l-22.69,45.9l-22.83,45.66c-7.64,15.19-15.19,30.42-22.91,45.55l-1.58-2.59
		c29.9,0.15,59.79,0.65,89.68,1.08c14.95,0.2,29.89,0.49,44.84,0.61l44.84,0.38l44.84,0.09l44.84-0.11l44.85-0.18l44.84-0.05
		l-1.6,2.46l-43.64-96.38l-21.64-48.27l-21.48-48.35l1.85,1.14l-44.71,1.84c-14.91,0.62-29.83,1.22-44.8,1.76l-44.94,1.66
		L314.32,472.83z M314.1,472.5l44.65-2.74l44.87-2.62c14.97-0.89,29.99-1.71,45.02-2.52l45.11-2.44l1.31-0.07l0.55,1.21l21.82,48.19
		l21.66,48.27l42.95,96.7l1.1,2.49l-2.7-0.03l-44.84-0.5l-44.84-0.63l-44.84-0.56l-44.84-0.35l-44.84-0.07
		c-14.95-0.03-29.9,0.11-44.85,0.16c-29.9,0.13-59.79,0.34-89.69,0.18l-2.88-0.01l1.29-2.58c7.69-15.32,15.57-30.55,23.35-45.81
		l23.44-45.71l23.57-45.46L302.3,495L314.1,472.5z"/>
</g>
<g>
	<path class="st2" d="M280.96,215.32c0,0-38.38-87.59,38.89-98.22s108.47,67.53,108.47,67.53L280.96,215.32z"/>
	<path class="st3" d="M280.59,216.03c-0.19-0.13-0.38-0.35-0.5-0.59c-0.07-0.13-0.1-0.16-0.16-0.25l-0.29-0.45l-0.55-0.9l-1.07-1.83
		c-0.71-1.22-1.35-2.47-2-3.73c-1.25-2.53-2.43-5.1-3.48-7.73c-2.12-5.26-3.82-10.71-5.08-16.33c-1.22-5.63-1.99-11.43-2.05-17.37
		c-0.06-5.93,0.58-12.02,2.26-18.01l0.65-2.24c0.23-0.74,0.54-1.47,0.82-2.21c0.57-1.47,1.09-2.96,1.87-4.35
		c1.37-2.87,3.11-5.58,5.02-8.16c1.03-1.23,2.03-2.5,3.13-3.67c1.15-1.12,2.31-2.23,3.5-3.3c1.24-1.01,2.54-1.92,3.82-2.87
		l0.97-0.69c0.33-0.22,0.68-0.39,1.02-0.59l2.05-1.16c0.68-0.39,1.37-0.76,2.06-1.13c0.7-0.34,1.42-0.61,2.13-0.91
		c1.43-0.58,2.84-1.21,4.29-1.68c2.92-0.83,5.81-1.77,8.75-2.17c1.47-0.24,2.92-0.52,4.38-0.7l4.37-0.37
		c2.9-0.33,5.78-0.22,8.65-0.28c1.43-0.05,2.87,0.06,4.3,0.12l4.28,0.19l4.26,0.43c1.42,0.13,2.83,0.24,4.23,0.51l4.21,0.62
		c1.4,0.22,2.78,0.55,4.17,0.81c2.79,0.49,5.5,1.28,8.25,1.94c5.42,1.57,10.78,3.4,15.96,5.7c5.16,2.32,10.23,4.92,15.09,7.92
		c9.71,5.99,18.74,13.35,26.42,21.98c3.83,4.31,7.37,8.89,10.53,13.74c1.58,2.43,3.1,4.89,4.54,7.43c0.72,1.27,1.42,2.55,2.1,3.86
		c0.35,0.65,0.67,1.32,1.01,1.99c0.34,0.71,0.64,1.31,1.02,2.19l3.59,8.19l-9.19,2.24c-12.58,3.07-25.29,6.11-38.07,8.69
		c-12.77,2.6-25.57,4.75-38.22,6.68c-12.65,1.92-25.17,3.62-37.4,5.04c-6.12,0.73-12.16,1.37-18.11,1.94
		C292.15,215.13,286.28,215.68,280.59,216.03z M281.32,214.61c6.59-2.21,13-4.21,19.34-6.2c6.33-1.98,12.57-3.9,18.73-5.73
		c12.33-3.7,24.37-7.11,36.28-10.3c11.91-3.19,23.67-6.15,35.46-8.66c11.78-2.53,23.63-4.61,35.61-6.65l-5.6,10.44
		c-0.14-0.39-0.4-1.05-0.62-1.6c-0.25-0.58-0.48-1.16-0.74-1.74c-0.51-1.17-1.05-2.34-1.6-3.51c-1.11-2.34-2.34-4.64-3.58-6.93
		c-2.54-4.56-5.27-9.04-8.22-13.38c-5.84-8.73-12.65-16.92-20.74-23.85c-4.07-3.43-8.52-6.41-13.21-8.96l-3.58-1.8
		c-1.21-0.56-2.46-1.03-3.7-1.55l-1.86-0.75l-1.91-0.61c-1.28-0.39-2.54-0.85-3.83-1.19c-10.36-2.69-21.29-3.05-31.71-0.95
		c-2.6,0.57-5.22,0.99-7.71,1.79l-3.76,1.06c-1.23,0.41-2.41,0.9-3.61,1.33c-2.44,0.77-4.64,1.99-6.91,2.96
		c-0.57,0.24-1.07,0.6-1.6,0.89l-1.59,0.88c-0.52,0.3-1.07,0.57-1.58,0.89c-0.48,0.35-0.97,0.69-1.47,1.01
		c-7.98,5.13-13.71,12.38-16.88,21.44c-3.19,9.05-3.95,19.46-3.46,29.97c0.22,5.27,0.8,10.6,1.56,15.96
		c0.36,2.69,0.82,5.36,1.29,8.06l0.74,4.05l0.41,2.02l0.21,1.01l0.1,0.51c0.01,0.07,0.05,0.2,0.04,0.22
		C281.57,214.64,281.44,214.58,281.32,214.61z"/>
</g>
<g>
	<path class="st2" d="M512.01,232.48c0,0,19.06-84.77-24.39-103.3s-58.77,57.44-58.77,57.44L512.01,232.48z"/>
	<path class="st3" d="M511.68,231.76c-0.15-0.02-0.35,0.09-0.42,0.22l-0.04,0.08l0-0.05l0-0.1l-0.02-0.42l-0.03-0.83l-0.06-1.65
		l-0.1-3.29l-0.17-6.53l-0.38-12.88c-0.3-8.51-0.77-16.91-1.71-25.09c-0.22-2.05-0.51-4.07-0.79-6.09c-0.37-2-0.63-4.01-1.03-5.98
		c-0.28-2-0.77-3.92-1.1-5.9c-0.49-1.91-0.81-3.89-1.36-5.77c-0.44-1.94-1.07-3.77-1.63-5.68c-0.68-1.81-1.31-3.71-2.21-5.44
		c-1.7-3.51-3.8-6.97-6.74-9.66c-0.66-0.77-1.49-1.32-2.27-1.95c-0.78-0.63-1.57-1.27-2.47-1.73c-0.87-0.5-1.74-1.04-2.64-1.5
		l-2.82-1.16c-3.82-1.35-7.9-1.89-11.79-1.33c-3.9,0.55-7.52,2.26-10.58,4.68c-3.06,2.44-5.61,5.52-7.78,8.86
		c-2.19,3.34-3.97,6.98-5.63,10.68c-1.65,3.7-3.16,7.5-4.55,11.36c-1.4,3.86-2.61,7.81-3.66,11.8c-0.53,2-1.01,4-1.46,6.01
		c-0.23,1-0.44,2-0.64,3l-0.3,1.48l-0.25,1.37l-4.17-8.99c6.57,3.32,12.9,6.81,19.12,10.7c6.22,3.91,12.4,8,18.7,12.42
		c6.31,4.41,12.77,9.06,19.54,13.95L511.68,231.76z M512.34,233.21c-6.27-2.22-13.07-4.79-20.15-7.54
		c-7.09-2.76-14.49-5.74-22.04-8.98c-7.55-3.22-15.23-6.77-22.88-10.51c-7.64-3.76-15.17-7.91-22.46-12.23l-5.49-3.26l1.33-5.73
		c0.16-0.71,0.3-1.22,0.45-1.81l0.46-1.69c0.32-1.11,0.66-2.21,1-3.3c0.69-2.19,1.42-4.35,2.22-6.49c1.58-4.28,3.33-8.51,5.29-12.65
		c3.92-8.28,9.09-16.21,15.96-22.81c3.45-3.27,7.3-6.21,11.6-8.4c4.27-2.21,8.99-3.62,13.75-3.92c4.76-0.34,9.44,0.47,13.86,1.8
		l3.29,1.08l3.2,1.37c1.1,0.41,2.1,1.02,3.14,1.57c1.03,0.56,2.1,1.09,3.06,1.78c4.05,2.49,7.67,5.75,10.84,9.39
		c1.64,1.81,2.97,3.79,4.38,5.78c1.22,2.05,2.5,4.13,3.46,6.3c4.19,8.66,5.68,18.05,6.08,27.15c0.42,9.14-0.33,18.17-1.95,26.97
		c-0.81,4.4-1.85,8.75-3.15,13.02c-0.65,2.14-1.35,4.26-2.14,6.35c-0.39,1.05-0.8,2.09-1.25,3.12l-0.68,1.54
		c-0.12,0.26-0.22,0.51-0.35,0.77l-0.19,0.38l-0.05,0.1l-0.02,0.05c-0.01,0.03-0.04,0.12-0.06,0.18
		C512.75,232.86,512.52,233.1,512.34,233.21z"/>
</g>
<g>
	<path class="st2" d="M508.46,225.59c0,0,92.31-50.45,126.95,0.61s-48.6,93.96-48.6,93.96L508.46,225.59z"/>
	<path class="st3" d="M507.68,225.44c0.04-0.18,0.18-0.41,0.36-0.53c0.21-0.14,0.09-0.06,0.15-0.1l0.1-0.08l0.2-0.17l0.4-0.33
		c0.27-0.22,0.54-0.42,0.82-0.64l1.65-1.25c1.1-0.83,2.24-1.61,3.38-2.38c2.28-1.54,4.61-3,6.99-4.4c4.74-2.8,9.65-5.32,14.7-7.59
		c10.09-4.52,20.73-8.06,31.87-10.1c5.57-1,11.27-1.67,17.05-1.72c5.78-0.01,11.65,0.58,17.39,2.06c5.73,1.48,11.31,3.82,16.33,7.02
		c5.05,3.15,9.46,7.19,13.15,11.62c1.81,2.25,3.54,4.54,5,6.98c1.5,2.4,2.87,4.86,4.07,7.42c2.45,5.09,4.15,10.59,4.87,16.27
		c0.73,5.69,0.33,11.52-0.94,17.15c-1.25,5.64-3.34,11.08-6,16.19c-5.36,10.21-12.76,19.15-21.16,26.68
		c-4.2,3.78-8.6,7.29-13.13,10.61c-2.27,1.65-4.57,3.27-6.93,4.82c-1.18,0.78-2.37,1.54-3.58,2.29l-1.84,1.12
		c-0.64,0.38-1.2,0.72-1.97,1.14l-5.63,3.09l-4.55-5.17c-7.11-8.09-14.08-16.45-20.71-24.99c-6.65-8.53-13.01-17.2-19.09-25.78
		c-6.09-8.58-11.89-17.09-17.41-25.35c-2.74-4.13-5.46-8.2-8.02-12.19c-1.31-2-2.6-3.97-3.84-5.92
		C510.08,229.26,508.86,227.33,507.68,225.44z M509.25,225.74l23.64,23.4c7.54,7.5,14.79,14.76,21.76,21.94
		c6.97,7.18,13.67,14.28,20.08,21.51c6.42,7.22,12.51,14.62,18.46,22.29l-10.18-2.08l1.58-0.78l1.68-0.87
		c1.12-0.59,2.25-1.21,3.36-1.84c2.24-1.26,4.46-2.56,6.65-3.92c4.38-2.72,8.63-5.64,12.72-8.74c4.08-3.11,8.07-6.33,11.84-9.76
		c3.78-3.42,7.33-7.07,10.47-11.04c3.11-3.98,5.79-8.31,7.57-13.02c1.78-4.69,2.63-9.76,2.25-14.8c-0.35-5.04-1.87-10.01-4.32-14.51
		c-0.6-1.13-1.28-2.22-1.97-3.3c-0.75-1.05-1.47-2.12-2.28-3.1c-1.57-2.01-3.38-3.82-5.27-5.47c-3.82-3.28-8.2-5.71-12.79-7.38
		c-2.28-0.85-4.64-1.5-7.02-1.99c-1.18-0.28-2.39-0.46-3.58-0.67l-1.8-0.28l-1.82-0.2c-4.85-0.54-9.77-0.67-14.76-0.57
		c-2.49,0.05-5,0.18-7.52,0.33c-2.52,0.18-5.05,0.47-7.59,0.75c-10.15,1.26-20.38,3.43-30.62,6c-5.12,1.29-10.25,2.69-15.4,4.14
		l-7.74,2.23l-3.89,1.14l-1.95,0.57l-0.98,0.29l-0.49,0.14l-0.24,0.07l-0.12,0.04c0.02-0.02-0.14,0.07,0.04-0.04
		C509.14,226.1,509.25,225.9,509.25,225.74z"/>
</g>
<g>
	<path class="st2" d="M574.01,305.3c0,0,119.9,72.06,83.05,146.56c-36.86,74.49-141.95,7.73-141.95,7.73L574.01,305.3z"/>
	<path class="st3" d="M573.75,304.55c0.18-0.05,0.45-0.04,0.66,0.05c0.22,0.11,0.11,0.05,0.18,0.08l0.16,0.07l0.32,0.13l0.63,0.27
		c0.42,0.18,0.83,0.38,1.25,0.57l2.48,1.17c1.65,0.78,3.26,1.64,4.88,2.48c3.23,1.69,6.41,3.49,9.53,5.38
		c6.26,3.76,12.32,7.87,18.19,12.27c11.72,8.81,22.7,18.81,32.28,30.3c2.41,2.86,4.67,5.86,6.87,8.91c2.21,3.05,4.25,6.25,6.16,9.53
		c3.78,6.59,6.95,13.65,9.02,21.12c2.12,7.44,3.06,15.29,2.77,23.04c-0.16,3.88-0.62,7.72-1.39,11.49
		c-0.81,3.76-1.89,7.43-3.19,10.99c-2.72,7.09-6.3,13.65-10.57,19.76c-2.19,3.02-4.49,5.96-7.1,8.65c-2.59,2.7-5.43,5.17-8.45,7.41
		c-3.04,2.21-6.26,4.19-9.66,5.85c-3.39,1.65-6.93,3.02-10.55,4.1c-7.24,2.18-14.8,3.29-22.35,3.53
		c-15.12,0.44-30.13-2.27-44.28-6.88c-7.09-2.3-14.01-5.03-20.81-8.03c-3.39-1.51-6.76-3.09-10.09-4.76
		c-1.66-0.84-3.32-1.7-4.97-2.59l-2.48-1.36c-0.85-0.47-1.61-0.91-2.57-1.48l-5.63-3.37l2.34-6.56c4.8-13.46,9.89-26.94,15.31-40.22
		c5.4-13.29,11.08-26.37,16.81-39.19c5.73-12.82,11.54-25.35,17.28-37.52C562.56,327.61,568.2,315.72,573.75,304.55z M574.27,306.06
		l-12.49,41.98c-4.08,13.55-8.09,26.73-12.17,39.62c-4.09,12.9-8.23,25.52-12.64,37.95c-4.39,12.44-9.11,24.67-14.14,36.93
		l-3.29-9.93c0.57,0.39,1.35,0.88,2.05,1.32l2.18,1.35c1.47,0.89,2.96,1.77,4.47,2.62c3.01,1.72,6.07,3.38,9.16,4.97
		c6.19,3.18,12.53,6.06,18.97,8.63c12.88,5.08,26.13,9.38,39.81,10.91c6.82,0.71,13.73,0.67,20.46-0.6
		c3.36-0.64,6.66-1.58,9.84-2.86c3.17-1.3,6.22-2.9,9.04-4.84c2.85-1.92,5.47-4.17,7.88-6.63c2.37-2.51,4.53-5.23,6.4-8.14
		c1.93-2.88,3.46-6.02,4.89-9.18c1.36-3.18,2.43-6.46,3.24-9.78c0.75-3.33,1.23-6.7,1.4-10.07c0.15-3.37-0.01-6.72-0.38-10.03
		c-0.35-3.31-1.09-6.57-1.94-9.78c-0.85-3.21-1.92-6.36-3.17-9.45c-2.44-6.2-5.51-12.18-8.95-18.02c-0.86-1.46-1.73-2.92-2.66-4.35
		c-0.9-1.45-1.83-2.88-2.79-4.3c-1.92-2.83-3.95-5.62-6.03-8.38c-8.38-10.99-17.95-21.31-28.06-31.22
		c-5.05-4.96-10.26-9.81-15.56-14.6l-8.03-7.15l-4.08-3.53l-2.05-1.76l-1.03-0.87l-0.51-0.44l-0.26-0.22l-0.13-0.11
		c0.02,0-0.14-0.09,0.03,0C573.91,306.16,574.14,306.14,574.27,306.06z"/>
</g>
<g>
	<path class="st2" d="M511.19,464.4c0,0,32.25,83.05-45.76,83.66c-78.02,0.61-103.75-73.16-103.75-73.16L511.19,464.4z"/>
	<path class="st3" d="M511.62,463.72c0.17,0.14,0.34,0.37,0.45,0.6l0.14,0.23l0.26,0.44l0.5,0.89l0.95,1.79
		c0.63,1.2,1.19,2.43,1.76,3.66c1.09,2.48,2.1,5,2.98,7.58c1.77,5.15,3.09,10.5,3.89,16.02c0.77,5.52,1.01,11.21,0.39,17
		c-0.62,5.78-2.14,11.67-4.91,17.2c-1.39,2.75-3.1,5.39-5.06,7.83l-1.55,1.77c-0.52,0.59-1.04,1.18-1.63,1.69
		c-1.17,1.04-2.29,2.16-3.53,3.11c-4.91,3.94-10.63,6.42-16.32,7.99c-5.72,1.68-11.49,2.03-17.12,2.14c-1.4-0.05-2.8-0.13-4.2-0.2
		l-2.09-0.11l-1.04-0.06l-1.03-0.12l-4.1-0.48l-2.04-0.24c-0.68-0.09-1.36-0.23-2.03-0.35c-21.64-3.75-41.98-11.55-59.86-24.07
		c-8.92-6.22-17.28-13.54-24.39-22c-3.57-4.22-6.81-8.73-9.73-13.45c-1.43-2.38-2.83-4.78-4.11-7.28c-0.64-1.25-1.27-2.5-1.88-3.79
		c-0.31-0.63-0.6-1.3-0.9-1.95c-0.3-0.7-0.56-1.28-0.9-2.16l-3.49-9.02l10.13-1.07c12.8-1.35,25.71-2.71,38.64-3.61
		c12.93-0.92,25.82-1.34,38.55-1.58c12.73-0.22,25.31-0.22,37.6,0.03C488.2,462.42,500.22,462.85,511.62,463.72z M510.76,465.07
		c-13.51,2.62-26.41,4.8-39.07,6.81c-12.64,2-24.98,3.75-37.16,5.28c-12.19,1.51-24.21,2.84-36.21,3.67
		c-11.99,0.85-24,1.24-36.12,1.64l6.64-10.09c0.1,0.36,0.33,1,0.51,1.53c0.21,0.56,0.4,1.12,0.63,1.69c0.43,1.13,0.91,2.27,1.39,3.4
		c0.97,2.27,2.05,4.51,3.14,6.75c2.23,4.46,4.67,8.85,7.29,13.14c5.22,8.61,11.44,16.75,18.88,23.78c3.75,3.47,7.83,6.6,12.17,9.36
		c2.22,1.28,4.41,2.65,6.74,3.72c1.16,0.54,2.29,1.16,3.49,1.64c1.18,0.5,2.39,0.95,3.58,1.43c1.18,0.5,2.42,0.86,3.65,1.24
		c1.23,0.36,2.44,0.79,3.69,1.08l3.76,0.83c1.24,0.32,2.52,0.48,3.79,0.65c1.27,0.17,2.53,0.36,3.8,0.51l3.83,0.23
		c2.54,0.2,5.11,0.09,7.65,0.04c0.64-0.02,1.27-0.01,1.9-0.06l1.91-0.16l3.79-0.31c2.51-0.24,4.97-0.71,7.43-1.02
		c4.81-1.02,9.58-1.96,13.86-3.65l1.64-0.56c0.52-0.24,1.02-0.48,1.54-0.7l1.55-0.68c0.52-0.22,1.04-0.44,1.5-0.74
		c0.95-0.55,1.92-1.05,2.89-1.57c0.88-0.63,1.75-1.25,2.66-1.83c0.88-0.62,1.63-1.37,2.47-2.03c0.43-0.32,0.79-0.71,1.14-1.11
		l1.09-1.16c1.43-1.57,2.72-3.3,3.82-5.19c4.51-7.51,6.35-17.2,6.7-27.15c0.19-5,0.02-10.1-0.41-15.25
		c-0.1-1.29-0.21-2.58-0.35-3.87c-0.11-1.3-0.28-2.59-0.43-3.89l-0.51-3.9l-0.29-1.96l-0.15-0.98l-0.08-0.49
		c-0.01-0.07-0.03-0.18-0.03-0.23C510.54,465.01,510.65,465.08,510.76,465.07z"/>
</g>
<g>
	<path class="st2" d="M359.8,475.35c0,0-3.3,89.03-75.17,58.66c-71.87-30.37-66.26-108.29-66.26-108.29L359.8,475.35z"/>
	<path class="st3" d="M360.46,474.9c0.1,0.2,0.17,0.47,0.17,0.72l0.03,0.27l0.07,0.51l0.1,1.01l0.16,2.02
		c0.1,1.35,0.13,2.7,0.17,4.06c0.02,2.71-0.06,5.42-0.27,8.14c-0.42,5.43-1.33,10.87-2.78,16.25c-1.48,5.37-3.51,10.7-6.38,15.77
		c-2.86,5.06-6.59,9.87-11.32,13.84c-2.37,1.98-4.98,3.72-7.75,5.18l-2.13,1.01c-0.71,0.34-1.42,0.68-2.17,0.91
		c-1.48,0.49-2.96,1.07-4.47,1.45c-6.07,1.67-12.3,1.68-18.15,0.87c-5.92-0.72-11.35-2.69-16.57-4.82c-1.27-0.6-2.52-1.23-3.77-1.84
		l-1.87-0.93l-0.93-0.46l-0.9-0.52l-3.58-2.07l-1.78-1.03c-0.59-0.35-1.15-0.75-1.73-1.13c-18.38-12.02-33.96-27.25-45.42-45.82
		c-5.73-9.25-10.5-19.28-13.67-29.87c-1.61-5.29-2.79-10.71-3.6-16.2c-0.36-2.75-0.7-5.51-0.88-8.31c-0.1-1.4-0.18-2.8-0.22-4.22
		c-0.03-0.7-0.03-1.43-0.05-2.15c0-0.76-0.01-1.4,0.03-2.34l0.37-9.66l9.73,3.03c12.29,3.83,24.68,7.71,36.9,12
		c12.23,4.28,24.23,9.01,36.02,13.83c11.78,4.84,23.33,9.83,34.5,14.93C339.47,464.43,350.34,469.58,360.46,474.9z M359.14,475.8
		c-13.45-2.95-26.15-6.07-38.57-9.23c-12.4-3.18-24.42-6.46-36.21-9.88c-11.79-3.44-23.36-6.99-34.7-10.98
		c-11.35-3.97-22.53-8.37-33.81-12.81l10.1-6.63c-0.05,0.37-0.09,1.05-0.13,1.6c-0.03,0.6-0.07,1.19-0.09,1.8
		c-0.05,1.21-0.07,2.44-0.07,3.67c-0.01,2.47,0.09,4.95,0.21,7.44c0.27,4.98,0.78,9.97,1.49,14.96c1.38,9.97,3.86,19.91,7.91,29.32
		c2.07,4.67,4.58,9.17,7.46,13.41c1.53,2.06,3,4.18,4.72,6.09c0.85,0.96,1.65,1.97,2.55,2.89c0.89,0.93,1.82,1.82,2.72,2.73
		c0.89,0.93,1.88,1.75,2.86,2.58c0.99,0.82,1.93,1.69,2.96,2.46l3.12,2.26c1.01,0.78,2.12,1.44,3.22,2.1
		c1.1,0.66,2.18,1.34,3.29,1.98l3.43,1.73c2.25,1.19,4.66,2.11,7.01,3.07c0.59,0.23,1.17,0.49,1.77,0.7l1.81,0.61l3.6,1.22
		c2.4,0.78,4.85,1.31,7.23,2.01c4.82,0.98,9.57,2,14.17,2.15l1.73,0.13c0.57-0.01,1.13-0.03,1.69-0.03l1.69-0.01
		c0.56,0.01,1.13,0.01,1.67-0.08c1.09-0.13,2.18-0.2,3.28-0.3c1.05-0.23,2.1-0.45,3.17-0.62c1.05-0.22,2.04-0.61,3.07-0.89
		c0.52-0.12,1.01-0.34,1.49-0.57l1.46-0.63c1.94-0.88,3.8-1.95,5.56-3.25c7.11-5.11,12.65-13.27,16.92-22.27
		c2.16-4.51,4.02-9.27,5.66-14.16c0.42-1.22,0.83-2.45,1.21-3.69c0.41-1.24,0.77-2.49,1.15-3.74l1.08-3.79l0.51-1.91l0.25-0.96
		l0.12-0.48c0.02-0.07,0.04-0.18,0.06-0.22C358.95,475.66,359.03,475.77,359.14,475.8z"/>
</g>
<g>
	<path class="st2" d="M282.19,216.82c0,0-76.61-48.97-107.21,2.45s38.56,93,38.56,93L282.19,216.82z"/>
	<path class="st3" d="M281.4,216.97c-0.05,0.13-0.01,0.31,0.07,0.4c0.08,0.07-0.02,0.01-0.04,0.01l-0.11-0.04l-0.43-0.15l-0.86-0.3
		l-1.73-0.6l-3.45-1.17c-2.29-0.79-4.58-1.54-6.85-2.29c-4.57-1.47-9.1-2.88-13.63-4.14c-4.53-1.27-9.07-2.35-13.57-3.29
		c-2.26-0.47-4.51-0.84-6.75-1.23l-3.36-0.46c-1.12-0.16-2.23-0.24-3.34-0.37c-1.11-0.14-2.22-0.18-3.32-0.24
		c-1.1-0.07-2.21-0.17-3.3-0.15c-1.09,0-2.19-0.05-3.27,0c-1.08,0.07-2.15,0.1-3.23,0.14c-2.12,0.21-4.26,0.29-6.31,0.69l-1.57,0.2
		c-0.52,0.09-1.01,0.22-1.52,0.33c-0.51,0.12-1.02,0.22-1.53,0.32l-0.77,0.15l-0.74,0.22c-0.99,0.3-1.99,0.58-3.01,0.85
		c-0.96,0.38-1.93,0.75-2.93,1.1c-0.25,0.09-0.5,0.17-0.74,0.27l-0.7,0.35c-0.47,0.23-0.94,0.46-1.43,0.68l-1.45,0.68l-1.36,0.83
		l-1.38,0.84l-0.7,0.42c-0.23,0.15-0.43,0.33-0.65,0.49l-2.61,1.99c-0.86,0.69-1.62,1.51-2.44,2.26l-1.21,1.17
		c-0.38,0.41-0.73,0.86-1.09,1.29l-2.17,2.65c-0.66,0.93-1.27,1.91-1.9,2.88l-0.94,1.46c-0.29,0.5-0.52,1.02-0.78,1.53
		c-0.5,1.03-1.05,2.05-1.52,3.11c-1.76,4.26-2.77,8.8-3.04,13.38c-0.24,4.59,0.48,9.18,1.82,13.54c1.34,4.37,3.41,8.48,5.9,12.3
		c5.06,7.63,11.56,14.14,18.37,20.22c3.42,3.03,6.97,5.95,10.66,8.66c1.84,1.37,3.73,2.66,5.63,3.92c0.95,0.62,1.91,1.23,2.87,1.82
		l1.43,0.87c0.45,0.27,0.99,0.58,1.32,0.76l-10.76,2.22c5.14-7.77,10.35-15.34,15.96-22.69c2.79-3.69,5.7-7.32,8.66-10.96
		c1.46-1.83,2.96-3.64,4.48-5.46c1.51-1.82,3.03-3.65,4.59-5.47c6.18-7.31,12.65-14.69,19.42-22.29
		C266.82,233.05,273.86,225.23,281.4,216.97z M282.97,216.67c-3.9,7.66-8.3,15.74-12.98,24.04c-4.68,8.3-9.65,16.83-14.91,25.43
		c-1.3,2.15-2.65,4.3-3.99,6.46c-1.34,2.16-2.7,4.32-4.1,6.47c-2.76,4.31-5.57,8.63-8.51,12.9c-5.83,8.55-12.06,16.9-18.37,25.03
		l-4.74,6.11l-6.02-3.9c-0.7-0.45-1.18-0.79-1.74-1.18l-1.59-1.14c-1.04-0.77-2.06-1.55-3.08-2.34c-2.01-1.59-3.99-3.2-5.9-4.88
		c-3.84-3.35-7.53-6.87-10.95-10.68c-6.82-7.6-12.48-16.43-16.33-26c-3.78-9.59-5.74-19.91-4.93-30.07
		c0.43-5.07,1.53-10.04,3.04-14.89l1.31-3.57l0.67-1.79l0.78-1.73l1.56-3.49l1.84-3.4c0.31-0.57,0.6-1.15,0.93-1.71l1.08-1.64
		c0.73-1.09,1.41-2.24,2.22-3.29l2.54-3.11c0.22-0.26,0.42-0.53,0.65-0.77l0.72-0.71l1.45-1.43c3.92-3.75,8.59-7.01,13.74-9.04
		l0.95-0.42l0.97-0.34c0.65-0.23,1.3-0.44,1.96-0.65c0.66-0.2,1.32-0.43,1.98-0.61l2-0.46c2.68-0.63,5.37-0.93,8.06-1.17
		c1.34-0.04,2.68-0.09,4.02-0.1c1.34,0,2.65,0.1,3.98,0.15c1.33,0.03,2.63,0.2,3.94,0.33c1.3,0.15,2.61,0.3,3.88,0.55
		c5.15,0.8,10.13,2.14,14.95,3.78c2.42,0.78,4.77,1.73,7.1,2.7c1.15,0.51,2.32,0.98,3.46,1.52l3.39,1.64
		c4.47,2.27,8.79,4.78,12.91,7.57c2.06,1.4,4.07,2.86,6.02,4.39c0.97,0.77,1.94,1.55,2.88,2.37l1.4,1.24
		c0.23,0.21,0.47,0.41,0.69,0.63l0.34,0.33l0.08,0.08c0.04,0.04,0.01,0.02,0.15,0.13C282.73,216.2,282.9,216.46,282.97,216.67z"/>
</g>
<g>
	<path class="st2" d="M212.05,309.47c0,0-93.64,16.73-83.51,76.24s92.89,42.44,92.89,42.44L212.05,309.47z"/>
	<path class="st3" d="M211.56,310.1c0.04,0.14,0.2,0.25,0.32,0.26c0.1,0,0.01,0.02-0.02,0.03l-0.11,0.05l-0.43,0.19l-0.87,0.37
		l-1.74,0.75l-3.45,1.5l-6.84,3.01c-4.52,2.05-8.99,4.09-13.35,6.27c-8.71,4.36-17.15,9-24.74,14.42c-1.92,1.33-3.71,2.78-5.54,4.17
		c-1.73,1.49-3.48,2.95-5.09,4.52l-1.24,1.15l-1.17,1.19c-0.76,0.8-1.61,1.56-2.3,2.41l-2.2,2.47c-0.66,0.87-1.34,1.72-2.03,2.58
		c-2.6,3.51-4.84,7.26-6.54,11.39c-1.58,4.15-2.5,8.66-2.76,13.34c0.11,2.33-0.03,4.71,0.42,7.06c0.17,1.18,0.31,2.37,0.57,3.53
		c0.29,1.15,0.58,2.3,0.91,3.45c1.41,4.53,3.61,8.82,6.52,12.54c2.96,3.69,6.64,6.75,10.69,9.12c4.06,2.38,8.51,4.03,13.07,5.17
		c9.19,2.18,18.69,2.55,28.14,2.35c4.73-0.09,9.48-0.39,14.2-0.94c2.36-0.26,4.71-0.61,7.04-0.99c1.16-0.2,2.32-0.41,3.47-0.62
		l1.7-0.34c0.54-0.11,1.16-0.25,1.56-0.35l-6.49,8.64c-1.1-9.36-1.95-18.62-2.41-27.97l-0.3-7.03l-0.17-7.1
		c-0.07-2.37-0.08-4.76-0.1-7.15c-0.03-2.39-0.04-4.8-0.03-7.23c0-9.7,0.17-19.63,0.39-29.94l0.4-15.78l0.22-8.13L211.56,310.1z
		 M212.54,308.84c0.49,2.11,0.97,4.27,1.44,6.48c0.48,2.19,0.93,4.44,1.4,6.7c0.95,4.5,1.84,9.17,2.75,13.9
		c1.79,9.47,3.52,19.32,5.08,29.4c0.4,2.52,0.78,5.05,1.14,7.61c0.37,2.55,0.75,5.1,1.07,7.68l1,7.74l0.87,7.8
		c1.1,10.43,1.81,20.95,2.28,31.37l0.33,7.46l-6.82,1.18c-0.83,0.14-1.44,0.22-2.13,0.32l-2,0.25c-1.32,0.16-2.64,0.28-3.96,0.4
		c-2.63,0.21-5.25,0.39-7.88,0.46c-5.25,0.18-10.5,0.12-15.76-0.3c-10.49-0.88-21.01-3.41-30.69-7.92
		c-9.66-4.51-18.39-11.14-24.69-19.62c-3.12-4.27-5.48-8.99-7.45-13.84c-0.42-1.24-0.89-2.46-1.34-3.7
		c-0.43-1.24-0.7-2.52-1.09-3.77l-0.55-1.9c-0.18-0.63-0.26-1.29-0.41-1.94l-0.8-3.92c-0.75-5.3-1.05-10.84-0.22-16.41
		c0.87-5.54,2.71-10.99,5.42-15.96c2.67-5.01,6.32-9.31,10.26-13.12c3.97-3.81,8.36-7.02,12.9-9.81
		c9.08-5.64,18.85-9.54,28.78-12.35c4.98-1.38,10.01-2.46,15.08-3.22c2.54-0.37,5.08-0.68,7.64-0.88c1.28-0.1,2.56-0.19,3.84-0.22
		l1.93-0.05c0.32,0,0.64-0.02,0.96-0.01l0.49,0.01l0.12,0c0.05,0,0.04,0.01,0.21-0.01C212.03,308.64,212.34,308.73,212.54,308.84z"
		/>
</g>
<g>
	<path class="st0" d="M205.41,322.44c0,0-75.23,20.1-10.18,25.37c0,0-51.86,16.7-2.64,29.01c0,0-56.26,13.19,5.27,17.58
		C259.4,398.79,205.41,322.44,205.41,322.44z"/>
	<path class="st1" d="M205.35,322.62c0.01,0.03,0.08,0.02,0.05,0.03l-0.07,0.02l-0.13,0.04l-0.26,0.09l-0.52,0.18l-1.04,0.37
		l-2.07,0.74l-4.14,1.5c-2.75,1-5.48,2.06-8.2,3.14c-5.37,2.22-10.85,4.5-15.45,7.64c-1.12,0.78-2.17,1.69-2.76,2.58
		c-0.3,0.45-0.38,0.82-0.35,1.03c0.03,0.2,0.15,0.46,0.53,0.81c0.73,0.68,1.98,1.27,3.24,1.73c1.28,0.46,2.64,0.83,4.02,1.14
		c5.56,1.23,11.37,1.86,17.17,2.48l8.07,0.86l-7.7,2.38c-4.35,1.34-8.73,2.96-12.85,4.96c-2.06,1-4.07,2.11-5.92,3.42
		c-1.81,1.3-3.57,2.83-4.44,4.73c-0.4,0.95-0.54,1.97-0.26,2.94c0.24,0.98,0.87,1.89,1.64,2.67c1.56,1.57,3.58,2.73,5.65,3.72
		c4.19,1.93,8.69,3.21,13.22,4.28l2.84,0.67l-2.85,0.74c-3.11,0.81-6.19,1.78-9.23,2.82c-3.03,1.05-6.04,2.21-8.82,3.66
		c-1.35,0.73-2.74,1.55-3.63,2.49c-0.21,0.23-0.39,0.46-0.46,0.64c-0.07,0.18-0.08,0.28-0.06,0.3c0.03,0.03,0.06,0.12,0.2,0.27
		c0.08,0.07,0.17,0.16,0.27,0.24l0.36,0.25c1.1,0.66,2.61,1.13,4.09,1.5c1.5,0.38,3.04,0.69,4.61,0.94
		c6.26,0.99,12.73,1.52,19.1,1.85c3.15,0.14,6.29,0.08,9.33-0.34c3.02-0.45,6.02-1.11,8.58-2.47c2.6-1.29,4.66-3.27,6.07-5.7
		c1.36-2.46,2.02-5.38,2.12-8.4c0.23-6.06-1.31-12.32-3.27-18.34c-2.04-6.03-4.57-11.95-7.43-17.72c-1.44-2.88-2.94-5.73-4.48-8.58
		c-0.78-1.42-1.57-2.83-2.38-4.22l-1.22-2.1l-0.62-1.04l-0.31-0.52l-0.16-0.26C205.36,322.73,205.36,322.71,205.35,322.62z
		 M205.48,322.25c0.1,0.09,0.22,0.22,0.28,0.31l0.19,0.24l0.37,0.48l0.74,0.97c0.49,0.65,0.97,1.31,1.44,1.97
		c0.94,1.32,1.87,2.66,2.78,4.01c1.83,2.69,3.56,5.45,5.19,8.27c3.28,5.63,6.3,11.45,8.67,17.61c1.18,3.08,2.23,6.23,2.97,9.49
		c0.75,3.26,1.27,6.62,1.2,10.09c-0.05,3.45-0.73,7.05-2.45,10.3c-1.73,3.25-4.61,5.9-7.82,7.47c-0.79,0.44-1.62,0.74-2.44,1.09
		c-0.83,0.26-1.66,0.6-2.5,0.79c-0.84,0.23-1.68,0.44-2.53,0.57c-0.85,0.17-1.69,0.27-2.54,0.37c-3.39,0.38-6.75,0.36-10.06,0.14
		c-3.3-0.23-6.51-0.55-9.77-0.92c-3.25-0.38-6.5-0.82-9.74-1.47c-1.62-0.32-3.25-0.69-4.87-1.18c-1.62-0.51-3.25-1.04-4.89-2.12
		c-0.21-0.14-0.41-0.31-0.62-0.47c-0.2-0.19-0.41-0.38-0.6-0.61c-0.39-0.46-0.75-1.1-0.85-1.88c-0.09-0.79,0.16-1.5,0.45-2.03
		c0.3-0.54,0.66-0.92,1.02-1.27c1.45-1.32,2.98-2.03,4.51-2.75c3.07-1.36,6.19-2.34,9.32-3.26c3.14-0.91,6.3-1.67,9.49-2.39
		l-0.01,1.41c-4.53-1.25-9.07-2.58-13.38-4.6c-2.15-1-4.28-2.16-6.06-3.89c-0.86-0.87-1.7-1.9-2.08-3.19
		c-0.42-1.28-0.29-2.71,0.18-3.93c0.99-2.44,2.82-4.2,4.67-5.74c1.88-1.53,3.91-2.82,5.98-4.01c4.17-2.34,8.47-4.3,12.99-5.95
		l0.38,3.25c-2.95-0.2-5.91-0.41-8.86-0.8c-2.95-0.37-5.91-0.82-8.85-1.55c-1.47-0.35-2.95-0.78-4.42-1.34
		c-1.47-0.59-2.97-1.21-4.4-2.55c-0.7-0.64-1.4-1.72-1.48-3c-0.07-1.28,0.45-2.34,0.98-3.09c1.11-1.51,2.41-2.45,3.71-3.32
		c2.61-1.71,5.35-2.92,8.11-4.07c2.75-1.14,5.55-2.12,8.37-3.02c2.81-0.91,5.65-1.72,8.5-2.48c1.42-0.38,2.86-0.72,4.29-1.07
		l2.16-0.49l1.08-0.23l0.54-0.11l0.27-0.06l0.14-0.03l0.07-0.01C205.31,322.25,205.43,322.23,205.48,322.25z"/>
</g>
<g>
	<path class="st0" d="M577.04,302.48c0,0,65.68,4.01,14.48,22.49c0,0,45.98,5.52,9.29,27.57c0,0,48.66,1.21,0.08,18.12
		C552.32,387.58,577.04,302.48,577.04,302.48z"/>
	<path class="st1" d="M576.93,302.32c0.05-0.03,0.18-0.04,0.19-0.04h0.06h0.12h0.24h0.48l0.95,0.01c0.64,0.01,1.27,0.01,1.91,0.04
		c1.27,0.04,2.55,0.09,3.82,0.17c2.54,0.17,5.09,0.36,7.62,0.68c2.54,0.31,5.08,0.69,7.6,1.24c2.52,0.56,5.06,1.19,7.54,2.32
		c1.24,0.57,2.49,1.25,3.64,2.37c0.56,0.57,1.11,1.32,1.4,2.26c0.3,0.94,0.23,2.02-0.07,2.88c-0.64,1.7-1.74,2.78-2.79,3.71
		c-1.07,0.92-2.2,1.66-3.33,2.36c-2.28,1.37-4.62,2.52-7,3.52c-2.38,1.02-4.78,1.93-7.21,2.74l-0.38-3.3
		c2.16,0.31,4.2,0.75,6.26,1.3c2.05,0.54,4.08,1.15,6.08,1.9s3.96,1.62,5.82,2.75c1.84,1.13,3.66,2.51,4.86,4.51l0.38,0.79
		l0.19,0.39l0.12,0.43l0.23,0.85c0.04,0.29,0.04,0.59,0.06,0.88c0.08,1.18-0.25,2.31-0.66,3.34c-0.92,2.04-2.35,3.67-3.83,5.19
		c-3.08,2.92-6.55,5.29-10.08,7.53l-0.34-1.27c2.98,0.07,5.94,0.2,8.91,0.46c2.97,0.29,5.94,0.67,8.93,1.55
		c0.75,0.23,1.5,0.5,2.25,0.88c0.74,0.39,1.52,0.84,2.19,1.7c0.33,0.43,0.59,1,0.69,1.62c0.08,0.63-0.02,1.24-0.21,1.75
		c-0.38,1.03-0.98,1.72-1.57,2.33c-1.2,1.2-2.5,2.07-3.81,2.89c-1.31,0.81-2.65,1.53-4.01,2.19c-2.71,1.32-5.47,2.5-8.25,3.57
		c-1.39,0.54-2.78,1.06-4.18,1.57c-1.43,0.51-2.89,0.99-4.38,1.39c-2.98,0.8-6.12,1.3-9.36,1.14c-3.22-0.1-6.61-1.08-9.39-3.04
		c-2.79-1.94-4.88-4.68-6.23-7.59c-1.38-2.91-2.18-5.95-2.72-8.99c-1-6.08-0.92-12.15-0.41-18.11c0.5-5.97,1.53-11.84,2.8-17.64
		c0.62-2.9,1.33-5.78,2.15-8.63c0.4-1.43,0.81-2.85,1.25-4.27c0.21-0.71,0.44-1.41,0.67-2.12l0.35-1.05l0.18-0.53l0.09-0.26
		C576.79,302.58,576.86,302.42,576.93,302.32z M577.16,302.65c0.02,0.07,0.04,0.09,0.02,0.16l-0.06,0.27l-0.11,0.54l-0.22,1.08
		l-0.42,2.17c-0.28,1.45-0.55,2.89-0.8,4.34c-0.48,2.9-0.95,5.81-1.37,8.71c-0.81,5.81-1.35,11.65-1.58,17.46
		c-0.18,5.8-0.02,11.62,1.05,17.17c0.55,2.76,1.33,5.45,2.54,7.86c0.61,1.19,1.3,2.32,2.1,3.34c0.81,1,1.74,1.88,2.76,2.61
		c1.02,0.74,2.17,1.28,3.38,1.66c0.6,0.22,1.24,0.34,1.86,0.49c0.65,0.08,1.29,0.22,1.96,0.24c2.65,0.2,5.43-0.14,8.15-0.8
		c1.37-0.33,2.72-0.74,4.08-1.18c1.39-0.47,2.77-0.94,4.14-1.44c2.74-1,5.46-2.03,8.1-3.2c2.59-1.19,5.28-2.44,7.21-4.12
		c0.47-0.41,0.86-0.87,1.01-1.22c0.14-0.36,0.16-0.47-0.03-0.82c-0.21-0.34-0.69-0.73-1.23-1.05c-0.55-0.32-1.17-0.6-1.82-0.85
		c-2.62-0.99-5.51-1.53-8.38-1.98c-2.88-0.44-5.82-0.75-8.73-0.88l-2.25-0.1l1.91-1.17l2.64-1.61c0.88-0.53,1.7-1.16,2.55-1.73
		c1.68-1.18,3.27-2.48,4.72-3.9c1.38-1.46,2.73-3.02,3.42-4.83c0.71-1.79,0.58-3.73-0.48-5.24c-1.07-1.51-2.73-2.63-4.48-3.53
		c-1.76-0.9-3.66-1.58-5.6-2.16c-3.86-1.15-7.95-1.8-11.91-2.3l-6.66-0.83l6.28-2.47c4.66-1.83,9.35-3.66,13.56-6.06
		c1.03-0.61,2.04-1.26,2.9-1.98c0.87-0.7,1.57-1.54,1.86-2.21c0.12-0.33,0.14-0.58,0.08-0.85c-0.07-0.27-0.24-0.61-0.56-0.95
		c-0.64-0.68-1.61-1.31-2.65-1.83c-2.11-1.04-4.46-1.85-6.85-2.51c-2.4-0.65-4.84-1.24-7.31-1.74c-2.47-0.49-4.95-0.97-7.44-1.38
		l-3.75-0.61l-1.88-0.29l-0.94-0.14l-0.47-0.07l-0.24-0.03l-0.12-0.02l-0.06-0.01C577.05,302.69,577.15,302.68,577.16,302.65z"/>
</g>
<g>
	<path class="st0" d="M401.81,479.45c0,0-276.24,12.71-191.21-171.87c92.54-200.88,309.75-147.2,372.29,6.24
		C650.86,480.57,401.81,479.45,401.81,479.45z"/>
	<path class="st4" d="M401.82,479.85c-11.6,0.44-23.22,0.18-34.82-0.33c-11.61-0.47-23.19-1.44-34.75-2.73
		c-23.07-2.73-46.15-7.03-68.24-15.14c-11-4.09-21.76-9.14-31.69-15.71c-4.94-3.31-9.69-6.96-14.12-11.01
		c-4.41-4.07-8.39-8.64-11.93-13.54c-7.19-9.75-11.87-21.33-13.99-33.22c-0.99-5.95-1.6-11.99-1.36-17.98l0.03-2.25l0.16-2.24
		l0.33-4.47c0.17-1.48,0.38-2.96,0.58-4.44s0.37-2.96,0.68-4.41c2.1-11.71,5.73-23.02,10.21-33.88c0.57-1.35,1.09-2.73,1.7-4.07
		l1.83-4l1.84-4l1.97-3.92c2.57-5.25,5.37-10.38,8.22-15.48c5.75-10.17,12.15-19.98,19.17-29.31c6.98-9.36,14.59-18.24,22.84-26.5
		c16.43-16.57,35.7-30.37,56.91-40.21c2.66-1.21,5.35-2.35,8.05-3.48l4.1-1.57l2.05-0.78l2.08-0.7l4.15-1.42
		c1.39-0.47,2.8-0.85,4.2-1.27c1.41-0.4,2.8-0.87,4.22-1.21l4.26-1.07c11.38-2.81,23.08-4.29,34.8-4.77
		c23.47-0.91,47.14,2.74,69.4,10.45c11.17,3.77,21.92,8.71,32.27,14.35c10.36,5.64,20.19,12.23,29.47,19.5
		c18.61,14.51,34.83,32.04,48.16,51.54c6.67,9.75,12.47,20.09,17.49,30.78c4.99,10.69,9.31,21.77,12.35,33.3
		c0.37,1.44,0.68,2.91,1.02,4.36c0.31,1.46,0.72,2.89,0.95,4.38c0.51,2.95,1.11,5.88,1.41,8.87c0.82,5.94,1.03,11.99,0.85,18.03
		c-0.46,12.06-3.14,24.24-8.62,35.12c-2.68,5.45-5.94,10.6-9.65,15.37c-3.77,4.73-7.99,9.03-12.49,12.98
		c-8.98,7.94-19.24,14.1-29.81,19.27c-21.27,10.22-44.06,16.15-66.94,20.25c-11.46,1.99-22.99,3.57-34.56,4.62
		C425.03,479.03,413.43,479.81,401.82,479.85z M401.8,479.05c23.17-0.41,46.3-3.06,68.93-7.87c5.65-1.22,11.27-2.57,16.85-4.08
		c5.57-1.52,11.08-3.23,16.53-5.1c10.9-3.71,21.52-8.21,31.58-13.62c10.02-5.46,19.49-11.89,27.69-19.58
		c8.21-7.66,15.07-16.65,19.71-26.67c1.21-2.48,2.15-5.08,3.1-7.67l1.21-3.95c0.39-1.32,0.66-2.68,1.01-4.01
		c0.36-1.33,0.58-2.7,0.81-4.06s0.51-2.71,0.62-4.1l0.44-4.13l0.19-4.16c0.11-5.55-0.12-11.13-0.95-16.68
		c-0.3-2.78-0.89-5.53-1.39-8.29c-0.22-1.38-0.63-2.74-0.93-4.11c-0.34-1.37-0.64-2.74-1-4.1c-2.95-10.88-7.01-21.54-11.83-31.86
		c-4.83-10.3-10.41-20.26-16.69-29.75c-12.62-18.94-28.08-36.06-45.91-50.29c-4.42-3.6-9.05-6.93-13.74-10.18
		c-2.38-1.57-4.75-3.15-7.17-4.66c-2.45-1.46-4.84-3.02-7.35-4.38c-9.91-5.64-20.26-10.54-30.97-14.49
		c-21.39-7.93-44.2-12.34-67.14-12.12c-22.9,0.23-45.86,4.97-66.9,14.36c-21.03,9.38-40.12,23.03-56.19,39.56
		c-8.04,8.26-15.37,17.2-22.03,26.61c-6.62,9.43-12.59,19.31-17.92,29.52c-5.31,10.21-10.17,20.69-14.19,31.4
		s-7.16,21.72-8.91,32.89c-0.28,1.39-0.4,2.79-0.57,4.19c-0.16,1.4-0.34,2.8-0.47,4.2l-0.23,4.21l-0.11,2.1l0.02,2.1
		c0.02,1.4,0,2.8,0.04,4.2l0.29,4.17c0.05,1.4,0.27,2.77,0.45,4.15c0.21,1.37,0.3,2.77,0.63,4.12l0.83,4.08l1.1,4.01
		c0.33,1.35,0.85,2.63,1.3,3.94l0.69,1.96c0.22,0.65,0.54,1.27,0.8,1.91c0.57,1.26,1.07,2.55,1.69,3.79l1.89,3.7
		c1.4,2.39,2.78,4.79,4.42,7.03c6.36,9.12,14.71,16.82,23.9,23.37c9.29,6.44,19.41,11.82,29.98,16.21
		c10.56,4.43,21.53,8,32.69,10.92c11.16,2.93,22.51,5.2,33.95,6.93C355.41,478.21,378.64,479.67,401.8,479.05z"/>
</g>
<ellipse class="st5" cx="447.59" cy="354.11" rx="26.93" ry="13.96"/>
<ellipse class="st5" cx="337.37" cy="353.11" rx="26.93" ry="13.96"/>
<ellipse class="st6" cx="300.96" cy="309.84" rx="61.14" ry="50.3"/>
<ellipse class="st6" cx="475.28" cy="307.24" rx="61.14" ry="50.3"/>
<ellipse class="st7" cx="300.71" cy="310.35" rx="48.93" ry="40.25"/>
<ellipse class="st7" cx="475.47" cy="307.1" rx="48.93" ry="40.25"/>
<ellipse class="st7" cx="389.59" cy="340.83" rx="17.17" ry="5.72"/>
<line class="st8" x1="346.34" y1="358.34" x2="436.69" y2="357.93"/>
<path class="st9" d="M487.27,557.38c0,0-161.5-45.29-16.99,31.07"/>
<path class="st9" d="M309.24,552.69c0,0,172.94-21.87,12.67,32.57"/>
<path class="st10" d="M76.33,133.04c0,0,23.75-34.05,32.87,12.88c0,0-24.06-29.48,12.47-35.81c0,0-25.44,19.21-27.72-8.93
	C93.96,101.18,103.11,125.58,76.33,133.04z"/>
<path class="st10" d="M168,132.57c0,0,23.75-34.05,32.87,12.88c0,0-24.06-29.48,12.47-35.81c0,0-25.44,19.21-27.72-8.93
	C185.62,100.72,194.77,125.12,168,132.57z"/>
</svg>
