<?xml version="1.0" encoding="utf-8"?>
<!-- Generator: Adobe Illustrator 25.4.1, SVG Export Plug-In . SVG Version: 6.00 Build 0)  -->
<svg version="1.1" id="BASE" xmlns="http://www.w3.org/2000/svg" xmlns:xlink="http://www.w3.org/1999/xlink" x="0px" y="0px"
	 viewBox="0 0 800 800" style="enable-background:new 0 0 800 800;" xml:space="preserve">
<style type="text/css">
	.st0{fill:#FFFFFF;}
	.st1{fill:#C5F1FE;}
	.st2{stroke:#000000;stroke-miterlimit:10;}
	.st3{fill:#E3BD9B;stroke:#E3B994;stroke-width:3;stroke-miterlimit:10;}
</style>
<g>
	<path class="st0" d="M131.27,693.61c0,0,78.61-68.46,251.03-38.04S647.47,459.8,599.29,383.73S557.31,256,587.74,200.22
		c30.43-55.79-24.08-71.72-46.9-48.9c-22.82,22.82-21.6,47.83-21.6,47.83h-60.86c0,0,29.93-72.24-23.32-74.77
		c-53.25-2.54-49.2,52.03-52.76,89.99c-2.76,29.52,13.19,86.95-48.18,119.18c-66.07,34.69-103.96,96.36-109.04,144.54
		c-5.07,48.18-1.89,64.08-12.2,106.58C202.72,626.62,131.27,693.61,131.27,693.61z"/>
	<path class="st1" d="M131.53,693.38c-0.78-0.21-0.22-0.07-0.3-0.2l0.19-0.17l0.39-0.33l0.79-0.64l1.59-1.24
		c1.07-0.82,2.16-1.61,3.26-2.38c2.2-1.55,4.45-3.04,6.73-4.46c4.57-2.85,9.26-5.5,14.06-7.94c9.6-4.89,19.55-9.06,29.72-12.63
		c20.34-7.11,41.49-11.89,62.87-14.63c21.39-2.74,43.01-3.59,64.56-2.84c21.55,0.78,43.03,3.06,64.3,6.57
		c2.68,0.44,5.28,0.88,7.89,1.27c2.62,0.38,5.24,0.71,7.87,0.97c5.26,0.53,10.54,0.83,15.81,0.89c10.56,0.11,21.11-0.78,31.48-2.7
		c20.73-3.85,40.62-11.84,58.49-23.07c17.91-11.2,33.8-25.52,47.53-41.62c13.74-16.11,25.39-34.03,34.79-53.04
		c9.45-18.98,16.71-39.1,21.24-59.81c2.27-10.35,3.8-20.86,4.39-31.41c0.57-10.54,0.19-21.15-1.67-31.49
		c-1.86-10.34-5.26-20.31-10.98-29.13c-5.65-9.2-10.89-18.65-15.53-28.42c-4.62-9.77-8.66-19.84-11.75-30.21
		c-0.71-2.61-1.52-5.2-2.1-7.84l-0.94-3.95l-0.79-3.98c-0.28-1.32-0.5-2.66-0.71-4c-0.21-1.34-0.45-2.67-0.63-4.01
		c-0.32-2.69-0.69-5.37-0.86-8.08c-0.26-2.7-0.32-5.41-0.43-8.11c-0.02-1.35,0-2.71,0-4.06c-0.02-1.35,0.04-2.71,0.11-4.06
		c0.18-5.41,0.78-10.8,1.64-16.14c0.81-5.35,2.02-10.63,3.44-15.84c1.4-5.22,3.14-10.34,5.05-15.38
		c3.83-10.09,8.54-19.81,13.64-29.29c2.53-4.68,4.75-9.51,6.38-14.53c1.61-5.01,2.62-10.24,2.53-15.44
		c-0.08-5.18-1.36-10.35-4.1-14.67c-2.7-4.34-6.84-7.67-11.51-9.72c-9.41-4.1-20.71-3.44-29.74,1.21c-2.25,1.18-4.38,2.58-6.27,4.26
		c-0.96,0.82-1.82,1.72-2.73,2.69c-0.91,0.94-1.76,1.94-2.62,2.92c-3.39,3.99-6.36,8.3-8.84,12.88c-2.46,4.58-4.42,9.42-5.79,14.41
		c-0.69,2.49-1.22,5.03-1.59,7.57c-0.18,1.27-0.32,2.55-0.41,3.81c-0.04,0.63-0.08,1.27-0.1,1.89c-0.02,0.61-0.02,1.29,0,1.78
		l0.13,2.76l-2.77,0.01l-60.86,0.31l-4.33,0.02l1.6-4.1c1.41-3.61,2.66-7.49,3.74-11.32c1.08-3.85,1.99-7.74,2.69-11.65
		c1.38-7.8,2.04-15.78,0.91-23.35c-0.57-3.76-1.62-7.4-3.31-10.61c-1.68-3.21-4.03-5.97-6.95-8.01c-2.91-2.06-6.33-3.45-9.98-4.26
		c-1.81-0.44-3.71-0.66-5.6-0.86c-1.89-0.13-3.86-0.23-5.8-0.2c-7.74,0.04-15.41,1.54-21.71,5.36c-6.31,3.78-10.98,9.87-14.02,16.88
		c-3.08,7.01-4.81,14.78-5.99,22.66c-1.17,7.9-1.76,15.97-2.29,24.1l-0.82,12.27c-0.15,2.04-0.33,4.15-0.51,6.15
		c-0.17,1.92-0.25,3.88-0.3,5.87c-0.14,7.96,0.28,16.17,0.26,24.44c0,8.27-0.38,16.66-1.68,25c-1.29,8.33-3.54,16.62-7.07,24.41
		c-3.53,7.78-8.32,15.03-14.12,21.29c-5.79,6.28-12.51,11.61-19.68,16.03c-1.79,1.11-3.61,2.17-5.46,3.18l-5.41,2.91l-2.66,1.43
		l-2.61,1.51c-1.74,1.02-3.5,2-5.19,3.08c-6.86,4.21-13.51,8.77-19.87,13.72c-12.72,9.88-24.36,21.16-34.61,33.59
		c-10.24,12.43-19.14,26-26.08,40.53c-3.46,7.26-6.44,14.75-8.82,22.42c-2.39,7.66-4.07,15.53-5.05,23.46
		c-0.9,8.08-1.69,16.2-2.34,24.32c-0.64,8.12-1.15,16.27-1.72,24.44c-0.58,8.17-1.26,16.37-2.38,24.53
		c-1.1,8.16-2.58,16.27-4.39,24.28c-0.42,2.01-0.93,4-1.4,6c-0.48,1.99-0.93,3.99-1.54,6.03c-1.21,4.03-2.8,7.89-4.58,11.64
		c-3.57,7.49-7.93,14.52-12.56,21.31c-9.32,13.55-19.84,26.16-30.8,38.32c-5.49,6.07-11.1,12.03-16.85,17.86
		c-2.87,2.91-5.77,5.8-8.7,8.65l-4.42,4.26l-2.23,2.11l-1.12,1.05l-0.56,0.52l-0.28,0.26c-0.06,0.05-0.09,0.11-0.06,0
		C131.76,693.51,131.63,693.37,131.53,693.38z M131.01,693.84c-0.01-0.09-0.04-0.31,0.07-0.5c0.13-0.19,0.19-0.22,0.22-0.26
		l0.27-0.27l0.55-0.53l1.09-1.07l2.17-2.16l4.3-4.36c2.85-2.92,5.67-5.87,8.47-8.85c5.58-5.96,11.08-11.99,16.42-18.16
		c10.67-12.33,20.88-25.1,29.83-38.68c4.45-6.79,8.56-13.81,11.93-21.12c1.67-3.66,3.14-7.4,4.23-11.22
		c0.54-1.89,0.96-3.87,1.41-5.87c0.44-1.99,0.91-3.96,1.3-5.96c1.67-7.96,3.02-15.97,3.98-24.02c0.98-8.05,1.54-16.16,1.99-24.3
		c0.45-8.14,0.84-16.32,1.37-24.5c0.53-8.18,1.2-16.35,1.99-24.52c1.72-16.65,6.86-32.69,13.81-47.74
		c14.08-30.1,35.76-56.33,61.76-76.87c6.51-5.14,13.32-9.9,20.36-14.29c1.74-1.13,3.54-2.16,5.32-3.22l2.68-1.58l2.73-1.5l5.36-2.94
		c1.73-0.97,3.44-1.97,5.11-3.03c6.69-4.21,12.88-9.16,18.15-14.93c5.29-5.75,9.6-12.33,12.79-19.45
		c3.19-7.12,5.24-14.76,6.42-22.58c1.19-7.82,1.52-15.82,1.49-23.88c-0.01-8.08-0.47-16.2-0.36-24.59c0.04-2.1,0.12-4.22,0.3-6.37
		l0.51-6.07l0.83-12.2c0.55-8.17,1.15-16.43,2.39-24.7c1.27-8.25,3.05-16.62,6.65-24.56c1.79-3.96,4.03-7.81,6.89-11.25
		c2.84-3.45,6.31-6.46,10.18-8.76c3.88-2.3,8.12-3.87,12.41-4.82c4.3-0.95,8.65-1.34,12.93-1.32c2.15-0.01,4.27,0.11,6.45,0.28
		c2.17,0.25,4.34,0.52,6.5,1.06c4.31,1,8.6,2.75,12.35,5.45c3.76,2.68,6.82,6.36,8.88,10.41c2.08,4.05,3.26,8.4,3.88,12.71
		c0.62,4.32,0.68,8.63,0.43,12.87c-0.25,4.25-0.82,8.43-1.62,12.55c-0.8,4.12-1.81,8.18-2.98,12.19c-1.19,4.02-2.49,7.91-4.11,11.9
		l-2.73-4.08l60.86,0.31l-2.64,2.77c-0.02-0.86,0-1.51,0.04-2.24c0.03-0.71,0.09-1.42,0.16-2.12c0.14-1.4,0.33-2.79,0.56-4.17
		c0.48-2.75,1.12-5.47,1.93-8.13c1.61-5.32,3.84-10.43,6.58-15.23c2.76-4.79,6.03-9.27,9.69-13.36c0.93-1.01,1.85-2.03,2.83-2.99
		c0.95-0.96,1.97-1.98,3.07-2.88c2.17-1.83,4.59-3.34,7.12-4.6c10.15-4.9,22.34-5.3,32.57-0.59c5.09,2.36,9.55,6.19,12.49,11.01
		c2.97,4.81,4.27,10.48,4.27,15.99c0.02,5.54-1.11,10.97-2.78,16.15c-1.7,5.18-4.01,10.13-6.6,14.87
		c-2.54,4.71-5.01,9.44-7.26,14.29c-2.23,4.85-4.38,9.74-6.22,14.75c-1.87,4.99-3.57,10.05-4.93,15.2
		c-1.39,5.14-2.55,10.34-3.33,15.61c-0.79,5.26-1.32,10.56-1.44,15.87c-0.06,1.33-0.09,2.66-0.06,3.98
		c0.02,1.33,0.01,2.66,0.04,3.98c0.14,2.65,0.22,5.31,0.51,7.95c0.89,10.59,3.25,21.02,6.4,31.17c3.22,10.14,7.37,19.97,12.1,29.51
		c4.74,9.54,10.08,18.77,15.83,27.76l2.16,3.47l1.03,1.8l0.98,1.83c1.26,2.46,2.38,5,3.37,7.57c1.98,5.15,3.43,10.47,4.48,15.85
		c2.09,10.77,2.63,21.74,2.2,32.62c-0.45,10.88-1.88,21.69-4.05,32.33c-4.39,21.28-11.72,41.88-21.22,61.38
		c-9.58,19.47-21.47,37.83-35.56,54.39c-14.15,16.48-30.56,31.17-49.11,42.68c-9.25,5.77-19.04,10.7-29.2,14.69
		c-10.16,3.99-20.73,6.94-31.48,8.87c-10.75,1.91-21.68,2.74-32.58,2.55c-5.45-0.1-10.89-0.45-16.3-1.04
		c-2.71-0.3-5.4-0.65-8.09-1.06c-2.69-0.42-5.38-0.9-7.99-1.34c-21.03-3.72-42.28-6.23-63.6-7.25c-10.66-0.49-21.34-0.61-32.01-0.34
		c-10.67,0.31-21.33,0.99-31.94,2.21c-21.2,2.41-42.26,6.59-62.57,13.25c-10.15,3.33-20.11,7.26-29.74,11.91
		c-4.81,2.32-9.55,4.81-14.16,7.51c-2.3,1.35-4.58,2.77-6.8,4.25c-1.11,0.74-2.21,1.5-3.3,2.28l-1.61,1.19l-0.79,0.61l-0.39,0.31
		l-0.19,0.16C131.49,693.7,131.92,693.94,131.01,693.84z"/>
</g>
<path class="st2" d="M426.23,204.5c0,0,100.76,12.6,116.5,24.14l4.2-18.89l-27.29-4.2c0,0,32.54-68.22-4.2-73.47
	c-36.74-5.25-51.43,20.99-50.38,55.63l-35.69-2.1L426.23,204.5z"/>
<path class="st2" d="M477.79,276.09c4.58,15.58,39.18,39.15,39.18,39.15c-32.43,5.94-54.61-26.92-54.61-26.92
	c-60.46,13.02-54.39-5.66-54.39-5.66s32.95,1.55,45.26-4.11S475.58,268.57,477.79,276.09z"/>
<ellipse class="st2" cx="442.05" cy="242.63" rx="4.99" ry="7.48"/>
<ellipse class="st2" cx="512.05" cy="256.52" rx="4.99" ry="7.48"/>
<path class="st3" d="M540.74,658.43l23.5,7.23c0,0,24.79-235.76-26.21-244.9c-49.82-8.94-57.84,31.63-57.84,48.8
	s-0.9,28.01,9.04,29.82c9.94,1.81,22.59,1.81,22.59-10.84s-6.33-40.67,4.52-40.67s23.5,7.23,23.5,29.82S540.74,658.43,540.74,658.43
	z"/>
</svg>
