<?xml version="1.0" encoding="utf-8"?>
<!-- Generator: Adobe Illustrator 25.4.1, SVG Export Plug-In . SVG Version: 6.00 Build 0)  -->
<svg version="1.1" id="BASE" xmlns="http://www.w3.org/2000/svg" xmlns:xlink="http://www.w3.org/1999/xlink" x="0px" y="0px"
	 viewBox="0 0 800 800" style="enable-background:new 0 0 800 800;" xml:space="preserve">
<style type="text/css">
	.st0{fill:#EEB3C6;}
	.st1{fill:#F0A5BB;}
	.st2{fill:#E5D3D9;}
	.st3{fill:#B27682;}
	.st4{fill:#FFFFFF;stroke:#FFFFFF;stroke-miterlimit:10;}
	.st5{stroke:#000000;stroke-miterlimit:10;}
	.st6{fill:none;stroke:#000000;stroke-miterlimit:10;}
	.st7{fill:#D81645;}
	.st8{fill:#EEB3C6;stroke:#F0A5BB;stroke-width:5;stroke-miterlimit:10;}
</style>
<g>
	<path class="st0" d="M205.41,322.44l4.98-138.56c0,0,79.75,1.99,93.7,44.86S205.41,322.44,205.41,322.44z"/>
	<path class="st1" d="M205.3,322.6l0.4-33.92l0.28-17.29c0.1-5.78,0.22-11.6,0.37-17.44c0.24-11.64,0.65-23.4,1.29-35.13l2-34.97
		l0.04-0.78l0.73,0.04c10.64,0.65,21.16,2.01,31.58,4.07c10.4,2.09,20.75,4.8,30.6,9.05c4.9,2.14,9.7,4.63,14.14,7.74
		c4.44,3.09,8.56,6.74,11.98,11.05c3.43,4.32,6.02,9.25,7.63,14.64c0.74,2.76,1.02,5.64,0.85,8.48c-0.17,2.84-0.76,5.62-1.64,8.28
		c-1.75,5.33-4.62,10.1-7.86,14.46c-3.27,4.35-6.92,8.35-10.83,12.05c-7.81,7.4-16.36,13.85-25.22,19.77
		c-8.86,5.91-18.05,11.29-27.43,16.25c-4.7,2.48-9.4,4.92-14.21,7.17c-2.4,1.14-4.8,2.25-7.22,3.34c-1.21,0.54-2.42,1.09-3.64,1.61
		l-1.83,0.78l-0.92,0.38l-0.46,0.19C205.86,322.48,205.51,322.61,205.3,322.6z M205.53,322.27c0.1-0.15,0.05-0.15,0.25-0.24
		l0.44-0.23l0.88-0.46l1.76-0.92l3.51-1.86c2.33-1.24,4.65-2.51,6.96-3.8c4.61-2.59,9.21-5.17,13.75-7.88
		c9.06-5.42,17.96-11.09,26.54-17.17c4.29-3.03,8.5-6.19,12.57-9.49c4.09-3.27,8.03-6.72,11.77-10.34
		c3.7-3.66,7.26-7.45,10.34-11.56c3.04-4.12,5.76-8.51,7.4-13.23c1.66-4.69,2.17-9.74,0.96-14.47c-0.26-1.18-0.75-2.36-1.19-3.54
		c-0.23-0.59-0.41-1.19-0.69-1.76l-0.84-1.7c-0.29-0.56-0.55-1.14-0.85-1.69l-1.01-1.61l-1.01-1.61l-1.15-1.52
		c-3.05-4.07-6.82-7.63-10.97-10.71c-4.16-3.07-8.65-5.75-13.36-8.03c-4.7-2.3-9.61-4.19-14.6-5.84
		c-4.99-1.66-10.09-3.02-15.24-4.14c-10.3-2.19-20.84-3.59-31.35-3.85l0.78-0.73l-0.49,34.3c-0.19,11.37-0.62,22.7-1.21,34.15
		c-0.26,5.71-0.56,11.44-0.88,17.2l-0.96,17.35L205.53,322.27z"/>
</g>
<g>
	<path class="st0" d="M577.16,299.97l-15.14-126.04c0,0-68.56,7.71-77.23,47.85S577.16,299.97,577.16,299.97z"/>
	<path class="st1" d="M577.04,299.81l-4.7-32.17l-2.24-15.75c-0.75-5.23-1.44-10.43-2.13-15.61c-1.42-10.39-2.67-20.68-3.64-31.01
		c-1.04-10.34-1.92-20.77-3.01-31.25l0.79,0.62c-9.21,1.07-18.37,3.17-27.21,6.06c-4.43,1.43-8.76,3.15-12.97,5.08
		c-4.22,1.93-8.31,4.12-12.17,6.62c-3.86,2.5-7.52,5.3-10.78,8.47c-3.26,3.17-6.1,6.73-8.26,10.65c-1.08,1.95-2.03,3.98-2.74,6.09
		c-0.43,1.03-0.66,2.12-0.94,3.19c-0.13,0.54-0.3,1.08-0.4,1.61l-0.25,1.59c-0.52,4.27,0.36,8.62,2.12,12.64
		c1.76,4.03,4.34,7.75,7.22,11.23c2.92,3.46,6.22,6.64,9.65,9.68c3.46,3.02,7.09,5.86,10.85,8.55c3.74,2.72,7.59,5.29,11.53,7.75
		c7.85,4.94,15.98,9.5,24.24,13.82c4.13,2.16,8.33,4.19,12.52,6.25c2.1,1.02,4.21,2.02,6.33,2.99l3.19,1.46l1.6,0.72l0.8,0.36
		l0.4,0.18C577.02,299.68,576.95,299.68,577.04,299.81z M577.29,300.13c-0.19,0.03-0.53-0.07-0.61-0.11l-0.42-0.14l-0.83-0.28
		l-1.66-0.58c-1.11-0.38-2.2-0.8-3.3-1.2c-2.19-0.82-4.38-1.66-6.56-2.53c-4.37-1.71-8.66-3.6-12.94-5.52
		c-8.56-3.85-16.95-8.1-25.08-12.86c-4.06-2.39-8.06-4.9-11.96-7.57c-3.89-2.69-7.67-5.55-11.3-8.63c-1.81-1.55-3.58-3.14-5.28-4.83
		c-1.69-1.7-3.33-3.45-4.88-5.3c-3.08-3.7-5.87-7.76-7.75-12.36c-1.9-4.55-2.87-9.7-2.16-14.74l0.33-1.87
		c0.12-0.62,0.32-1.19,0.47-1.79c0.34-1.18,0.62-2.38,1.1-3.5c0.82-2.31,1.91-4.51,3.13-6.62c5.02-8.43,12.63-14.81,20.83-19.5
		c8.23-4.74,17.08-8.14,26.06-10.84c4.5-1.34,9.04-2.55,13.62-3.56c4.58-1.05,9.18-1.9,13.85-2.59l0.69-0.1l0.1,0.73
		c1.43,10.53,3.07,21.1,4.56,31.77c1.55,10.67,2.82,21.39,3.93,32.01c0.57,5.32,1.14,10.63,1.65,15.9l1.55,15.76L577.29,300.13z"/>
</g>
<g>
	<path class="st0" d="M205.41,322.44c0,0-75.23,20.1-10.18,25.37c0,0-51.86,16.7-2.64,29.01c0,0-56.26,13.19,5.27,17.58
		C259.4,398.79,205.41,322.44,205.41,322.44z"/>
	<path class="st1" d="M205.35,322.62c0.01,0.03,0.08,0.02,0.05,0.03l-0.07,0.02l-0.13,0.04l-0.26,0.09l-0.52,0.18l-1.04,0.37
		l-2.07,0.74l-4.14,1.5c-2.75,1-5.48,2.06-8.2,3.14c-5.37,2.22-10.85,4.5-15.45,7.64c-1.12,0.78-2.17,1.69-2.76,2.58
		c-0.3,0.45-0.38,0.82-0.35,1.03c0.03,0.2,0.15,0.46,0.53,0.81c0.73,0.68,1.98,1.27,3.24,1.73c1.28,0.46,2.64,0.83,4.02,1.14
		c5.56,1.23,11.37,1.86,17.17,2.48l8.07,0.86l-7.7,2.38c-4.35,1.34-8.73,2.96-12.85,4.96c-2.06,1-4.07,2.11-5.92,3.42
		c-1.81,1.3-3.57,2.83-4.44,4.73c-0.4,0.95-0.54,1.97-0.26,2.94c0.24,0.98,0.87,1.89,1.64,2.67c1.56,1.57,3.58,2.73,5.65,3.72
		c4.19,1.93,8.69,3.21,13.22,4.28l2.84,0.67l-2.85,0.74c-3.11,0.81-6.19,1.78-9.23,2.82c-3.03,1.05-6.04,2.21-8.82,3.66
		c-1.35,0.73-2.74,1.55-3.63,2.49c-0.21,0.23-0.39,0.46-0.46,0.64c-0.07,0.18-0.08,0.28-0.06,0.3c0.03,0.03,0.06,0.12,0.2,0.27
		c0.08,0.07,0.17,0.16,0.27,0.24l0.36,0.25c1.1,0.66,2.61,1.13,4.09,1.5c1.5,0.38,3.04,0.69,4.61,0.94
		c6.26,0.99,12.73,1.52,19.1,1.85c3.15,0.14,6.29,0.08,9.33-0.34c3.02-0.45,6.02-1.11,8.58-2.47c2.6-1.29,4.66-3.27,6.07-5.7
		c1.36-2.46,2.02-5.38,2.12-8.4c0.23-6.06-1.31-12.32-3.27-18.34c-2.04-6.03-4.57-11.95-7.43-17.72c-1.44-2.88-2.94-5.73-4.48-8.58
		c-0.78-1.42-1.57-2.83-2.38-4.22l-1.22-2.1l-0.62-1.04l-0.31-0.52l-0.16-0.26C205.36,322.73,205.36,322.71,205.35,322.62z
		 M205.48,322.25c0.1,0.09,0.22,0.22,0.28,0.31l0.19,0.24l0.37,0.48l0.74,0.97c0.49,0.65,0.97,1.31,1.44,1.97
		c0.94,1.32,1.87,2.66,2.78,4.01c1.83,2.69,3.56,5.45,5.19,8.27c3.28,5.63,6.3,11.45,8.67,17.61c1.18,3.08,2.23,6.23,2.97,9.49
		c0.75,3.26,1.27,6.62,1.2,10.09c-0.05,3.45-0.73,7.05-2.45,10.3c-1.73,3.25-4.61,5.9-7.82,7.47c-0.79,0.44-1.62,0.74-2.44,1.09
		c-0.83,0.26-1.66,0.6-2.5,0.79c-0.84,0.23-1.68,0.44-2.53,0.57c-0.85,0.17-1.69,0.27-2.54,0.37c-3.39,0.38-6.75,0.36-10.06,0.14
		c-3.3-0.23-6.51-0.55-9.77-0.92c-3.25-0.38-6.5-0.82-9.74-1.47c-1.62-0.32-3.25-0.69-4.87-1.18c-1.62-0.51-3.25-1.04-4.89-2.12
		c-0.21-0.14-0.41-0.31-0.62-0.47c-0.2-0.19-0.41-0.38-0.6-0.61c-0.39-0.46-0.75-1.1-0.85-1.88c-0.09-0.79,0.16-1.5,0.45-2.03
		c0.3-0.54,0.66-0.92,1.02-1.27c1.45-1.32,2.98-2.03,4.51-2.75c3.07-1.36,6.19-2.34,9.32-3.26c3.14-0.91,6.3-1.67,9.49-2.39
		l-0.01,1.41c-4.53-1.25-9.07-2.58-13.38-4.6c-2.15-1-4.28-2.16-6.06-3.89c-0.86-0.87-1.7-1.9-2.08-3.19
		c-0.42-1.28-0.29-2.71,0.18-3.93c0.99-2.44,2.82-4.2,4.67-5.74c1.88-1.53,3.91-2.82,5.98-4.01c4.17-2.34,8.47-4.3,12.99-5.95
		l0.38,3.25c-2.95-0.2-5.91-0.41-8.86-0.8c-2.95-0.37-5.91-0.82-8.85-1.55c-1.47-0.35-2.95-0.78-4.42-1.34
		c-1.47-0.59-2.97-1.21-4.4-2.55c-0.7-0.64-1.4-1.72-1.48-3c-0.07-1.28,0.45-2.34,0.98-3.09c1.11-1.51,2.41-2.45,3.71-3.32
		c2.61-1.71,5.35-2.92,8.11-4.07c2.75-1.14,5.55-2.12,8.37-3.02c2.81-0.91,5.65-1.72,8.5-2.48c1.42-0.38,2.86-0.72,4.29-1.07
		l2.16-0.49l1.08-0.23l0.54-0.11l0.27-0.06l0.14-0.03l0.07-0.01C205.31,322.25,205.43,322.23,205.48,322.25z"/>
</g>
<g>
	<path class="st0" d="M577.04,302.48c0,0,65.68,4.01,14.48,22.49c0,0,45.98,5.52,9.29,27.57c0,0,48.66,1.21,0.08,18.12
		C552.32,387.58,577.04,302.48,577.04,302.48z"/>
	<path class="st1" d="M576.93,302.32c0.05-0.03,0.18-0.04,0.19-0.04h0.06h0.12h0.24h0.48l0.95,0.01c0.64,0.01,1.27,0.01,1.91,0.04
		c1.27,0.04,2.55,0.09,3.82,0.17c2.54,0.17,5.09,0.36,7.62,0.68c2.54,0.31,5.08,0.69,7.6,1.24c2.52,0.56,5.06,1.19,7.54,2.32
		c1.24,0.57,2.49,1.25,3.64,2.37c0.56,0.57,1.11,1.32,1.4,2.26c0.3,0.94,0.23,2.02-0.07,2.88c-0.64,1.7-1.74,2.78-2.79,3.71
		c-1.07,0.92-2.2,1.66-3.33,2.36c-2.28,1.37-4.62,2.52-7,3.52c-2.38,1.02-4.78,1.93-7.21,2.74l-0.38-3.3
		c2.16,0.31,4.2,0.75,6.26,1.3c2.05,0.54,4.08,1.15,6.08,1.9s3.96,1.62,5.82,2.75c1.84,1.13,3.66,2.51,4.86,4.51l0.38,0.79
		l0.19,0.39l0.12,0.43l0.23,0.85c0.04,0.29,0.04,0.59,0.06,0.88c0.08,1.18-0.25,2.31-0.66,3.34c-0.92,2.04-2.35,3.67-3.83,5.19
		c-3.08,2.92-6.55,5.29-10.08,7.53l-0.34-1.27c2.98,0.07,5.94,0.2,8.91,0.46c2.97,0.29,5.94,0.67,8.93,1.55
		c0.75,0.23,1.5,0.5,2.25,0.88c0.74,0.39,1.52,0.84,2.19,1.7c0.33,0.43,0.59,1,0.69,1.62c0.08,0.63-0.02,1.24-0.21,1.75
		c-0.38,1.03-0.98,1.72-1.57,2.33c-1.2,1.2-2.5,2.07-3.81,2.89c-1.31,0.81-2.65,1.53-4.01,2.19c-2.71,1.32-5.47,2.5-8.25,3.57
		c-1.39,0.54-2.78,1.06-4.18,1.57c-1.43,0.51-2.89,0.99-4.38,1.39c-2.98,0.8-6.12,1.3-9.36,1.14c-3.22-0.1-6.61-1.08-9.39-3.04
		c-2.79-1.94-4.88-4.68-6.23-7.59c-1.38-2.91-2.18-5.95-2.72-8.99c-1-6.08-0.92-12.15-0.41-18.11c0.5-5.97,1.53-11.84,2.8-17.64
		c0.62-2.9,1.33-5.78,2.15-8.63c0.4-1.43,0.81-2.85,1.25-4.27c0.21-0.71,0.44-1.41,0.67-2.12l0.35-1.05l0.18-0.53l0.09-0.26
		C576.79,302.58,576.86,302.42,576.93,302.32z M577.16,302.65c0.02,0.07,0.04,0.09,0.02,0.16l-0.06,0.27l-0.11,0.54l-0.22,1.08
		l-0.42,2.17c-0.28,1.45-0.55,2.89-0.8,4.34c-0.48,2.9-0.95,5.81-1.37,8.71c-0.81,5.81-1.35,11.65-1.58,17.46
		c-0.18,5.8-0.02,11.62,1.05,17.17c0.55,2.76,1.33,5.45,2.54,7.86c0.61,1.19,1.3,2.32,2.1,3.34c0.81,1,1.74,1.88,2.76,2.61
		c1.02,0.74,2.17,1.28,3.38,1.66c0.6,0.22,1.24,0.34,1.86,0.49c0.65,0.08,1.29,0.22,1.96,0.24c2.65,0.2,5.43-0.14,8.15-0.8
		c1.37-0.33,2.72-0.74,4.08-1.18c1.39-0.47,2.77-0.94,4.14-1.44c2.74-1,5.46-2.03,8.1-3.2c2.59-1.19,5.28-2.44,7.21-4.12
		c0.47-0.41,0.86-0.87,1.01-1.22c0.14-0.36,0.16-0.47-0.03-0.82c-0.21-0.34-0.69-0.73-1.23-1.05c-0.55-0.32-1.17-0.6-1.82-0.85
		c-2.62-0.99-5.51-1.53-8.38-1.98c-2.88-0.44-5.82-0.75-8.73-0.88l-2.25-0.1l1.91-1.17l2.64-1.61c0.88-0.53,1.7-1.16,2.55-1.73
		c1.68-1.18,3.27-2.48,4.72-3.9c1.38-1.46,2.73-3.02,3.42-4.83c0.71-1.79,0.58-3.73-0.48-5.24c-1.07-1.51-2.73-2.63-4.48-3.53
		c-1.76-0.9-3.66-1.58-5.6-2.16c-3.86-1.15-7.95-1.8-11.91-2.3l-6.66-0.83l6.28-2.47c4.66-1.83,9.35-3.66,13.56-6.06
		c1.03-0.61,2.04-1.26,2.9-1.98c0.87-0.7,1.57-1.54,1.86-2.21c0.12-0.33,0.14-0.58,0.08-0.85c-0.07-0.27-0.24-0.61-0.56-0.95
		c-0.64-0.68-1.61-1.31-2.65-1.83c-2.11-1.04-4.46-1.85-6.85-2.51c-2.4-0.65-4.84-1.24-7.31-1.74c-2.47-0.49-4.95-0.97-7.44-1.38
		l-3.75-0.61l-1.88-0.29l-0.94-0.14l-0.47-0.07l-0.24-0.03l-0.12-0.02l-0.06-0.01C577.05,302.69,577.15,302.68,577.16,302.65z"/>
</g>
<g>
	<polygon class="st0" points="314.21,472.66 221.68,655.4 580.42,657.19 493.84,464.11 	"/>
	<path class="st1" d="M314.32,472.83l-22.61,46.26l-22.69,45.9l-22.83,45.66c-7.64,15.19-15.19,30.42-22.91,45.55l-1.58-2.59
		c29.9,0.15,59.79,0.65,89.68,1.08c14.95,0.2,29.89,0.49,44.84,0.61l44.84,0.38l44.84,0.09l44.84-0.11l44.85-0.18l44.84-0.05
		l-1.6,2.46l-43.64-96.38l-21.64-48.27l-21.48-48.35l1.85,1.14l-44.71,1.84c-14.91,0.62-29.83,1.22-44.8,1.76l-44.94,1.66
		L314.32,472.83z M314.1,472.5l44.65-2.74l44.87-2.62c14.97-0.89,29.99-1.71,45.02-2.52l45.11-2.44l1.31-0.07l0.55,1.21l21.82,48.19
		l21.66,48.27l42.95,96.7l1.1,2.49l-2.7-0.03l-44.84-0.5l-44.84-0.63l-44.84-0.56l-44.84-0.35l-44.84-0.07
		c-14.95-0.03-29.9,0.11-44.85,0.16c-29.9,0.13-59.79,0.34-89.69,0.18l-2.88-0.01l1.29-2.58c7.69-15.32,15.57-30.55,23.35-45.81
		l23.44-45.71l23.57-45.46L302.3,495L314.1,472.5z"/>
</g>
<g>
	<polygon class="st2" points="411.48,522.29 367,479.52 314.1,472.5 220.11,654.58 341.61,655.93 580.44,658.94 493.92,466.03 
		470.73,471.18 	"/>
	<path class="st3" d="M411.48,522.49l-22.5-20.96l-11.35-10.58l-11.35-10.68l0.59,0.28l-52.96-6.57l1.53-0.8l-23.34,45.6
		c-7.78,15.2-15.53,30.41-23.41,45.56c-7.85,15.16-15.77,30.29-23.75,45.39l-23.92,45.3l-0.9-1.49l22.52,0.46l22.52,0.34
		c15.01,0.2,30.03,0.51,45.04,0.59l45.04,0.38l45.05,0.22l45.05,0.18l45.04,0.31l90.09,0.83l-1.92,2.92l-21.69-48.2l-21.52-48.27
		l-21.37-48.34l-21.31-48.37l1.57,0.79l-23.24,4.93l0.51-0.26c-10.06,8.5-20.1,17.01-30.13,25.38L411.48,522.49z M411.49,522.09
		l29.37-26.06c9.72-8.67,19.42-17.19,29.12-25.73l0.21-0.19l0.3-0.07l23.14-5.37l1.1-0.25l0.48,1.04l21.95,48.08l21.89,48.11
		l21.74,48.18l21.57,48.25l1.33,2.98l-3.25-0.05l-90.08-1.45l-45.04-0.83l-45.04-0.95l-45.04-0.91l-45.04-0.67
		c-15.01-0.25-30.03-0.28-45.04-0.41l-22.52-0.16l-22.52-0.04l-1.65,0l0.75-1.49l23.08-45.74c7.68-15.25,15.43-30.47,23.24-45.65
		c7.79-15.2,15.7-30.33,23.58-45.48l23.66-45.44l0.49-0.95l1.04,0.15l52.84,7.47l0.35,0.05l0.24,0.23l10.89,10.71l10.89,10.81
		L411.49,522.09z"/>
</g>
<g>
	<polygon class="st2" points="436.6,477.91 341.61,655.93 401.08,656.9 470.73,471.18 	"/>
	<path class="st3" d="M436.72,478.07c-3.75,7.69-7.61,15.22-11.39,22.82l-11.52,22.55l-11.61,22.39l-11.73,22.25l-5.93,11.07
		l-6.01,11.01l-12.2,21.92c-4.06,7.32-8.19,14.61-12.21,21.97c-4.05,7.35-8.02,14.75-11.97,22.16l-0.53-0.9
		c9.91,0.14,19.83,0.25,29.74,0.24l29.75,0l-1.28,0.87c2.75-7.8,5.58-15.56,8.39-23.33c2.8-7.78,5.65-15.54,8.5-23.29
		c5.72-15.51,11.35-31.05,17.18-46.52c2.88-7.75,5.84-15.46,8.78-23.19c2.92-7.73,5.92-15.43,8.92-23.14l8.98-23.11l9.13-23.06
		l1.23,1.45c-5.63,1.01-11.29,1.99-16.99,2.94L436.72,478.07z M436.48,477.75l16.9-3.84c5.67-1.3,11.39-2.56,17.14-3.79l1.88-0.41
		l-0.66,1.85l-8.28,23.37l-8.43,23.32c-2.81,7.77-5.61,15.55-8.49,23.29c-2.86,7.75-5.7,15.52-8.63,23.24
		c-5.77,15.49-11.75,30.9-17.64,46.34c-2.95,7.72-5.9,15.44-8.91,23.14c-2.99,7.7-5.97,15.42-9.02,23.1l-0.36,0.9l-0.92-0.03
		l-29.73-0.97c-9.91-0.34-19.82-0.55-29.73-0.73l-1-0.02l0.47-0.88c3.97-7.42,7.92-14.86,11.78-22.35
		c3.9-7.47,7.68-15.02,11.54-22.53l11.55-22.59l5.86-11.24l5.95-11.18l12.02-22.25l12.13-22.11c4.05-7.35,8.14-14.66,12.22-21.95
		C428.26,492.2,432.32,484.9,436.48,477.75z"/>
</g>
<g>
	<path class="st0" d="M401.81,479.45c0,0-276.24,12.71-191.21-171.87c92.54-200.88,309.75-147.2,372.29,6.24
		C650.86,480.57,401.81,479.45,401.81,479.45z"/>
	<path class="st1" d="M401.82,479.85c-11.6,0.44-23.22,0.18-34.82-0.33c-11.61-0.47-23.19-1.44-34.75-2.73
		c-23.07-2.73-46.15-7.03-68.24-15.14c-11-4.09-21.76-9.14-31.69-15.71c-4.94-3.31-9.69-6.96-14.12-11.01
		c-4.41-4.07-8.39-8.64-11.93-13.54c-7.19-9.75-11.87-21.33-13.99-33.22c-0.99-5.95-1.6-11.99-1.36-17.98l0.03-2.25l0.16-2.24
		l0.33-4.47c0.17-1.48,0.38-2.96,0.58-4.44s0.37-2.96,0.68-4.41c2.1-11.71,5.73-23.02,10.21-33.88c0.57-1.35,1.09-2.73,1.7-4.07
		l1.83-4l1.84-4l1.97-3.92c2.57-5.25,5.37-10.38,8.22-15.48c5.75-10.17,12.15-19.98,19.17-29.31c6.98-9.36,14.59-18.24,22.84-26.5
		c16.43-16.57,35.7-30.37,56.91-40.21c2.66-1.21,5.35-2.35,8.05-3.48l4.1-1.57l2.05-0.78l2.08-0.7l4.15-1.42
		c1.39-0.47,2.8-0.85,4.2-1.27c1.41-0.4,2.8-0.87,4.22-1.21l4.26-1.07c11.38-2.81,23.08-4.29,34.8-4.77
		c23.47-0.91,47.14,2.74,69.4,10.45c11.17,3.77,21.92,8.71,32.27,14.35c10.36,5.64,20.19,12.23,29.47,19.5
		c18.61,14.51,34.83,32.04,48.16,51.54c6.67,9.75,12.47,20.09,17.49,30.78c4.99,10.69,9.31,21.77,12.35,33.3
		c0.37,1.44,0.68,2.91,1.02,4.36c0.31,1.46,0.72,2.89,0.95,4.38c0.51,2.95,1.11,5.88,1.41,8.87c0.82,5.94,1.03,11.99,0.85,18.03
		c-0.46,12.06-3.14,24.24-8.62,35.12c-2.68,5.45-5.94,10.6-9.65,15.37c-3.77,4.73-7.99,9.03-12.49,12.98
		c-8.98,7.94-19.24,14.1-29.81,19.27c-21.27,10.22-44.06,16.15-66.94,20.25c-11.46,1.99-22.99,3.57-34.56,4.62
		C425.03,479.03,413.43,479.81,401.82,479.85z M401.8,479.05c23.17-0.41,46.3-3.06,68.93-7.87c5.65-1.22,11.27-2.57,16.85-4.08
		c5.57-1.52,11.08-3.23,16.53-5.1c10.9-3.71,21.52-8.21,31.58-13.62c10.02-5.46,19.49-11.89,27.69-19.58
		c8.21-7.66,15.07-16.65,19.71-26.67c1.21-2.48,2.15-5.08,3.1-7.67l1.21-3.95c0.39-1.32,0.66-2.68,1.01-4.01
		c0.36-1.33,0.58-2.7,0.81-4.06s0.51-2.71,0.62-4.1l0.44-4.13l0.19-4.16c0.11-5.55-0.12-11.13-0.95-16.68
		c-0.3-2.78-0.89-5.53-1.39-8.29c-0.22-1.38-0.63-2.74-0.93-4.11c-0.34-1.37-0.64-2.74-1-4.1c-2.95-10.88-7.01-21.54-11.83-31.86
		c-4.83-10.3-10.41-20.26-16.69-29.75c-12.62-18.94-28.08-36.06-45.91-50.29c-4.42-3.6-9.05-6.93-13.74-10.18
		c-2.38-1.57-4.75-3.15-7.17-4.66c-2.45-1.46-4.84-3.02-7.35-4.38c-9.91-5.64-20.26-10.54-30.97-14.49
		c-21.39-7.93-44.2-12.34-67.14-12.12c-22.9,0.23-45.86,4.97-66.9,14.36c-21.03,9.38-40.12,23.03-56.19,39.56
		c-8.04,8.26-15.37,17.2-22.03,26.61c-6.62,9.43-12.59,19.31-17.92,29.52c-5.31,10.21-10.17,20.69-14.19,31.4
		s-7.16,21.72-8.91,32.89c-0.28,1.39-0.4,2.79-0.57,4.19c-0.16,1.4-0.34,2.8-0.47,4.2l-0.23,4.21l-0.11,2.1l0.02,2.1
		c0.02,1.4,0,2.8,0.04,4.2l0.29,4.17c0.05,1.4,0.27,2.77,0.45,4.15c0.21,1.37,0.3,2.77,0.63,4.12l0.83,4.08l1.1,4.01
		c0.33,1.35,0.85,2.63,1.3,3.94l0.69,1.96c0.22,0.65,0.54,1.27,0.8,1.91c0.57,1.26,1.07,2.55,1.69,3.79l1.89,3.7
		c1.4,2.39,2.78,4.79,4.42,7.03c6.36,9.12,14.71,16.82,23.9,23.37c9.29,6.44,19.41,11.82,29.98,16.21
		c10.56,4.43,21.53,8,32.69,10.92c11.16,2.93,22.51,5.2,33.95,6.93C355.41,478.21,378.64,479.67,401.8,479.05z"/>
</g>
<ellipse class="st4" cx="300.96" cy="309.84" rx="61.14" ry="50.3"/>
<ellipse class="st4" cx="475.28" cy="307.24" rx="61.14" ry="50.3"/>
<ellipse class="st5" cx="300.71" cy="310.35" rx="48.93" ry="40.25"/>
<ellipse class="st5" cx="475.47" cy="307.1" rx="48.93" ry="40.25"/>
<ellipse class="st5" cx="389.59" cy="340.83" rx="17.17" ry="5.72"/>
<line class="st6" x1="346.34" y1="358.34" x2="436.69" y2="357.93"/>
<polygon class="st7" points="271.77,222.75 509,215.53 535.46,235.37 254.44,237.17 "/>
<path class="st7" d="M267.15,227.69c0,0-72.69-57.53-72.06-34.41S267.15,227.69,267.15,227.69z"/>
<path class="st7" d="M268.33,227.94c0,0-88.87-11.82-77.05,8.25C203.1,256.26,268.33,227.94,268.33,227.94z"/>
<path class="st8" d="M500.89,551.19c0,0-161.5-45.29-16.99,31.07"/>
<path class="st8" d="M311.72,546.49c0,0,172.94-21.87,12.67,32.57"/>
<polygon class="st7" points="245.46,608.77 559.13,607.46 571.93,636.72 229.92,633.06 "/>
</svg>
